<svg width="1280" height="356" viewBox="0 0 1280 356" fill="none" xmlns="http://www.w3.org/2000/svg">
<g opacity="0.3">
<path fill-rule="evenodd" clip-rule="evenodd" d="M988.422 119.336C1070.41 119.336 1136.87 186.418 1136.87 269.168C1136.87 351.918 1070.41 419 988.422 419C906.438 419 839.977 351.918 839.977 269.168C839.977 186.418 906.438 119.336 988.422 119.336ZM988.422 217.456C961.578 217.456 942.468 239.421 942.468 266.516V270.494C942.468 297.588 961.578 319.554 988.422 319.554C1015.27 319.554 1034.38 297.588 1034.38 270.494V266.516C1034.38 239.421 1015.27 217.456 988.422 217.456Z" fill="url(#paint0_radial_6374_23042)" fill-opacity="0.2"/>
<path d="M39.4294 125.963C41.6243 125.963 43.4057 127.745 43.4057 129.941V319.552C43.4057 319.552 99.0728 324.856 99.0728 279.773V129.941C99.0728 127.745 100.854 125.963 103.049 125.963H193.177C195.372 125.963 197.153 127.745 197.153 129.941V308.944C197.153 375.772 125.581 413.694 50.0327 413.694H-52.0238C-54.2197 413.694 -56 411.912 -56 409.716V129.941C-56 127.745 -54.2197 125.963 -52.0238 125.963H39.4294Z" fill="url(#paint1_radial_6374_23042)" fill-opacity="0.2"/>
<path d="M328.371 125.963C330.566 125.963 332.347 127.745 332.347 129.941V409.716C332.347 411.912 330.566 413.694 328.371 413.694H239.568C237.373 413.694 235.592 411.912 235.592 409.716V129.941C235.592 127.745 237.373 125.963 239.568 125.963H328.371Z" fill="url(#paint2_radial_6374_23042)" fill-opacity="0.2"/>
<path d="M466.213 27.8455C468.408 27.8455 470.19 29.6276 470.19 31.8234V213.478L519.548 127.955C520.258 126.724 521.57 125.966 522.991 125.966H625.944C629.088 125.966 630.986 129.442 629.292 132.092L566.944 229.39C587.268 231.159 627.913 245.566 627.913 289.057V409.719C627.913 411.915 626.132 413.697 623.937 413.697H532.484C530.289 413.697 528.508 411.915 528.508 409.719V332.814C528.508 328.836 527.182 308.947 499.349 308.947C471.515 308.947 470.19 328.836 470.19 332.814V409.719C470.19 411.915 468.408 413.697 466.213 413.697H373.435C371.24 413.697 369.459 411.915 369.459 409.719V31.8234C369.459 29.6276 371.24 27.8455 373.435 27.8455H466.213Z" fill="url(#paint3_radial_6374_23042)" fill-opacity="0.2"/>
<path d="M752.5 31.8222C754.695 31.8222 756.476 33.6043 756.476 35.8001V125.965H818.77C820.965 125.965 822.747 127.747 822.747 129.942V218.781C822.747 220.977 820.965 222.759 818.77 222.759H756.476V318.227H818.77C820.965 318.227 822.747 320.009 822.747 322.205V409.718C822.747 411.913 820.965 413.696 818.77 413.696H744.547C697.7 413.696 659.721 375.702 659.721 328.835V35.8001C659.721 33.6043 661.503 31.8222 663.698 31.8222H752.5Z" fill="url(#paint4_radial_6374_23042)" fill-opacity="0.2"/>
<path d="M1333.02 125.965C1335.22 125.965 1337 127.747 1337 129.943V218.782C1337 220.977 1335.23 222.759 1333.03 222.759H1295.91C1283.98 222.759 1254.82 222.759 1254.82 270.494V409.718C1254.82 411.914 1253.04 413.696 1250.85 413.696H1162.05C1159.85 413.696 1158.07 411.914 1158.07 409.718V129.943C1158.07 127.747 1159.85 125.965 1162.05 125.965H1333.02Z" fill="url(#paint5_radial_6374_23042)" fill-opacity="0.2"/>
<path d="M284.63 0C315.374 0 340.297 23.7451 340.297 53.038C340.297 82.3308 315.374 106.076 284.63 106.076C253.886 106.076 228.963 82.3308 228.963 53.038C228.963 23.7451 253.886 0 284.63 0Z" fill="url(#paint6_radial_6374_23042)" fill-opacity="0.2"/>
<path d="M988.423 119.836C1070.13 119.836 1136.37 186.69 1136.37 269.168C1136.37 351.646 1070.13 418.5 988.423 418.5C906.719 418.5 840.477 351.646 840.477 269.168C840.477 186.69 906.719 119.836 988.423 119.836ZM373.435 28.3457H466.214C468.132 28.346 469.689 29.9036 469.689 31.8232V215.345L470.623 213.729L519.98 128.205C520.602 127.129 521.749 126.466 522.991 126.466H625.943C628.691 126.466 630.352 129.505 628.87 131.822L566.523 229.12L566.077 229.816L566.901 229.888C576.994 230.766 592.143 234.787 604.756 243.981C617.349 253.162 627.413 267.496 627.413 289.058V409.719C627.413 411.638 625.856 413.196 623.938 413.196H532.483C530.565 413.196 529.008 411.638 529.008 409.719V332.813C529.008 330.783 528.672 324.695 524.776 319.103C520.857 313.477 513.401 308.446 499.349 308.446C485.296 308.446 477.84 313.477 473.921 319.103C470.025 324.695 469.689 330.783 469.689 332.813V409.719C469.689 411.638 468.132 413.196 466.214 413.196H373.435C371.516 413.196 369.959 411.638 369.959 409.719V31.8232C369.959 29.9035 371.516 28.3458 373.435 28.3457ZM1162.05 126.465H1333.02C1334.94 126.465 1336.5 128.024 1336.5 129.943V218.781C1336.5 220.703 1334.95 222.26 1333.03 222.26H1295.91C1289.96 222.26 1279.54 222.249 1270.61 228.312C1261.65 234.402 1254.32 246.523 1254.32 270.493V409.718C1254.32 411.637 1252.77 413.196 1250.85 413.196H1162.05C1160.13 413.196 1158.57 411.638 1158.57 409.718V129.943C1158.57 128.024 1160.13 126.465 1162.05 126.465ZM663.697 32.3223H752.5C754.418 32.3223 755.976 33.8801 755.977 35.7998V126.465H818.771C820.689 126.465 822.246 128.023 822.246 129.942V218.781C822.246 220.701 820.689 222.259 818.771 222.259H755.977V318.728H818.771C820.689 318.728 822.246 320.285 822.246 322.205V409.718C822.246 411.637 820.689 413.195 818.771 413.195H744.548C697.976 413.195 660.222 375.426 660.222 328.835V35.7998C660.222 33.8802 661.779 32.3224 663.697 32.3223ZM-52.0234 126.463H39.4297C41.3481 126.463 42.9053 128.022 42.9053 129.941V320.007L43.3584 320.05L43.4053 319.552C43.3579 320.05 43.3588 320.05 43.3594 320.05H43.3613C43.3633 320.05 43.3665 320.05 43.3701 320.051C43.3773 320.051 43.3877 320.053 43.4014 320.054C43.4292 320.056 43.4706 320.06 43.5244 320.064C43.632 320.073 43.7909 320.086 43.9971 320.1C44.4095 320.128 45.0129 320.163 45.7793 320.191C47.3121 320.249 49.4993 320.28 52.123 320.176C57.3681 319.968 64.3732 319.218 71.3867 317.046C78.3992 314.874 85.4494 311.273 90.748 305.341C96.0553 299.399 99.5732 291.156 99.5732 279.773V129.941C99.5732 128.022 101.13 126.463 103.049 126.463H193.177C195.095 126.463 196.653 128.022 196.653 129.941V308.944C196.653 342.153 178.879 368.197 151.65 385.961C124.412 403.731 87.731 413.194 50.0322 413.194H-52.0234C-53.9428 413.194 -55.4998 411.637 -55.5 409.717V129.941C-55.5 128.021 -53.943 126.463 -52.0234 126.463ZM239.568 126.463H328.371C330.289 126.463 331.847 128.022 331.847 129.941V409.717C331.846 411.636 330.289 413.194 328.371 413.194H239.568C237.65 413.194 236.092 411.636 236.092 409.717V129.941C236.092 128.022 237.65 126.463 239.568 126.463ZM988.423 216.956C961.262 216.956 941.968 239.187 941.968 266.516V270.494C941.968 297.822 961.262 320.054 988.423 320.054C1015.58 320.054 1034.88 297.822 1034.88 270.494V266.516C1034.88 239.187 1015.58 216.956 988.423 216.956ZM284.63 0.5C315.121 0.500047 339.797 24.0439 339.797 53.0381C339.797 82.0322 315.121 105.576 284.63 105.576C254.139 105.576 229.463 82.0322 229.463 53.0381C229.463 24.0439 254.139 0.5 284.63 0.5Z" stroke="url(#paint7_linear_6374_23042)" stroke-opacity="0.6"/>
</g>
<defs>
<radialGradient id="paint0_radial_6374_23042" cx="0" cy="0" r="1" gradientUnits="userSpaceOnUse" gradientTransform="translate(640.5 209.5) rotate(90) scale(209.5 1296.35)">
<stop stop-color="white" stop-opacity="0.2"/>
<stop offset="1" stop-color="white"/>
</radialGradient>
<radialGradient id="paint1_radial_6374_23042" cx="0" cy="0" r="1" gradientUnits="userSpaceOnUse" gradientTransform="translate(640.5 209.5) rotate(90) scale(209.5 1296.35)">
<stop stop-color="white" stop-opacity="0.2"/>
<stop offset="1" stop-color="white"/>
</radialGradient>
<radialGradient id="paint2_radial_6374_23042" cx="0" cy="0" r="1" gradientUnits="userSpaceOnUse" gradientTransform="translate(640.5 209.5) rotate(90) scale(209.5 1296.35)">
<stop stop-color="white" stop-opacity="0.2"/>
<stop offset="1" stop-color="white"/>
</radialGradient>
<radialGradient id="paint3_radial_6374_23042" cx="0" cy="0" r="1" gradientUnits="userSpaceOnUse" gradientTransform="translate(640.5 209.5) rotate(90) scale(209.5 1296.35)">
<stop stop-color="white" stop-opacity="0.2"/>
<stop offset="1" stop-color="white"/>
</radialGradient>
<radialGradient id="paint4_radial_6374_23042" cx="0" cy="0" r="1" gradientUnits="userSpaceOnUse" gradientTransform="translate(640.5 209.5) rotate(90) scale(209.5 1296.35)">
<stop stop-color="white" stop-opacity="0.2"/>
<stop offset="1" stop-color="white"/>
</radialGradient>
<radialGradient id="paint5_radial_6374_23042" cx="0" cy="0" r="1" gradientUnits="userSpaceOnUse" gradientTransform="translate(640.5 209.5) rotate(90) scale(209.5 1296.35)">
<stop stop-color="white" stop-opacity="0.2"/>
<stop offset="1" stop-color="white"/>
</radialGradient>
<radialGradient id="paint6_radial_6374_23042" cx="0" cy="0" r="1" gradientUnits="userSpaceOnUse" gradientTransform="translate(640.5 209.5) rotate(90) scale(209.5 1296.35)">
<stop stop-color="white" stop-opacity="0.2"/>
<stop offset="1" stop-color="white"/>
</radialGradient>
<linearGradient id="paint7_linear_6374_23042" x1="-56" y1="0" x2="175.149" y2="768.473" gradientUnits="userSpaceOnUse">
<stop stop-color="white"/>
<stop offset="0.248762" stop-color="white" stop-opacity="0"/>
<stop offset="0.749473" stop-color="white" stop-opacity="0"/>
<stop offset="1" stop-color="white"/>
</linearGradient>
</defs>
</svg>
