<svg width="1280" height="379" viewBox="0 0 1440 427" fill="none" xmlns="http://www.w3.org/2000/svg" overflow="visible" class="relative z-[1] block h-auto w-full overflow-visible select-none" aria-hidden="true"><defs><radialGradient id="footer-wordmark-glass-radial-_R_1bivdb_" cx="50%" cy="32%" r="72%" gradientUnits="objectBoundingBox"><stop stop-color="white" stop-opacity="0.18"></stop><stop offset="1" stop-color="white" stop-opacity="0.42"></stop></radialGradient><linearGradient id="footer-wordmark-glass-linear-_R_1bivdb_" x1="0%" y1="0%" x2="100%" y2="100%" gradientUnits="objectBoundingBox"><stop stop-color="white" stop-opacity="0.7"></stop><stop offset="0.38" stop-color="white" stop-opacity="0"></stop><stop offset="0.62" stop-color="white" stop-opacity="0"></stop><stop offset="1" stop-color="white" stop-opacity="0.7"></stop></linearGradient><filter id="footer-wordmark-bezel-blur-_R_1bivdb_" x="-40%" y="-40%" width="180%" height="180%" color-interpolation-filters="sRGB"><feGaussianBlur in="SourceGraphic" stdDeviation="4"></feGaussianBlur></filter><clipPath id="_R_1bivdb_-wm-clip-0"><path d="M1258.61 126.194H1434.45C1437.01 126.194 1440 127.9 1440 130.884V221.266C1440 223.824 1437.44 225.956 1434.45 225.956H1393.05C1372.99 225.956 1356.35 242.583 1356.35 263.473V419.084C1356.35 421.642 1353.79 423.773 1350.8 423.773H1258.19C1255.63 423.773 1253.49 422.068 1253.49 419.084V130.884C1253.49 128.326 1255.2 126.194 1258.19 126.194H1258.61Z" fill-rule="nonzero"></path></clipPath><clipPath id="_R_1bivdb_-wm-clip-1"><path d="M1076.37 122.783C1163.44 122.783 1227.46 190.57 1227.46 273.704C1227.46 356.838 1163.44 426.331 1076.37 426.331C989.307 426.331 923.58 356.839 923.58 273.704C923.58 190.57 989.734 122.783 1076.37 122.783ZM1075.52 221.266C1049.06 221.266 1026.87 239.598 1026.87 271.572V277.115C1026.87 309.09 1049.06 327.422 1075.52 327.422C1101.98 327.422 1122.04 309.09 1122.04 277.115V271.572C1122.04 239.598 1101.13 221.266 1075.52 221.266Z" fill-rule="evenodd"></path></clipPath><clipPath id="_R_1bivdb_-wm-clip-2"><path d="M833.954 27.2852H741.34C738.353 27.2852 736.646 29.4168 736.646 31.9748V320.174C736.646 389.666 774.203 422.494 843.77 422.494H898.827C901.814 422.494 904.375 420.362 904.375 417.804V328.275C904.375 325.29 901.388 323.585 898.827 323.585H839.503V227.661H898.827C901.814 227.661 904.375 224.676 904.375 222.118V131.736C904.375 128.752 901.388 126.194 898.827 126.194H839.503V31.9748C839.503 28.9905 836.515 27.2852 833.954 27.2852Z" fill-rule="nonzero"></path></clipPath><clipPath id="_R_1bivdb_-wm-clip-3"><path d="M536.053 27.2852H444.382H443.865C440.878 27.2852 438.317 30.2695 438.317 32.8275V417.804C438.317 420.788 441.304 423.346 443.865 423.346H536.479C539.467 423.346 541.174 420.362 541.174 417.804V343.623C541.174 324.438 553.978 313.353 572.33 313.353C590.682 313.353 603.486 324.438 603.486 343.623V417.804C603.486 420.788 605.62 422.494 608.181 422.494H698.661C701.648 422.494 704.209 420.362 704.209 417.804L703.355 309.09C703.355 274.131 693.112 234.908 638.483 234.908L711.038 134.294C713.599 131.736 711.038 127.047 707.197 127.047H602.632C600.498 127.047 598.791 127.899 597.938 128.752L540.747 219.134V32.8275C540.747 29.8431 538.613 27.2852 536.053 27.2852Z" fill-rule="nonzero"></path></clipPath><clipPath id="_R_1bivdb_-wm-clip-4"><path d="M352.531 0H346.129C316.681 0 293.207 22.5955 293.207 52.865C293.207 83.1345 316.681 107.009 346.129 107.009H352.531C381.98 107.009 406.734 81.8555 406.734 52.865C406.734 23.8745 381.98 0 352.531 0Z" fill-rule="nonzero"></path></clipPath><clipPath id="_R_1bivdb_-wm-clip-5"><path d="M395.637 126.194H303.023C300.036 126.194 298.329 128.326 298.329 130.884V418.23C298.329 421.215 300.463 423.773 303.023 423.773H395.637C398.625 423.773 401.186 420.788 401.186 418.23V130.884C401.186 127.899 398.198 126.194 395.637 126.194Z" fill-rule="nonzero"></path></clipPath><clipPath id="_R_1bivdb_-wm-clip-6"><path d="M98.1624 126.194H4.69472C1.70717 126.194 0 128.326 0 130.884V418.657C0 421.641 2.13397 423.347 4.69472 423.347H111.393C197.605 423.347 262.478 373.04 262.478 308.238V130.884C262.478 127.9 260.344 126.194 257.783 126.194H164.315C161.328 126.194 159.621 128.326 159.621 130.884V281.805C159.621 311.222 145.963 325.717 118.648 325.717H102.857V130.884C102.857 127.9 100.723 126.194 98.1624 126.194Z" fill-rule="nonzero"></path></clipPath></defs><g><g clip-path="url(#_R_1bivdb_-wm-clip-0)"><path d="M1258.61 126.194H1434.45C1437.01 126.194 1440 127.9 1440 130.884V221.266C1440 223.824 1437.44 225.956 1434.45 225.956H1393.05C1372.99 225.956 1356.35 242.583 1356.35 263.473V419.084C1356.35 421.642 1353.79 423.773 1350.8 423.773H1258.19C1255.63 423.773 1253.49 422.068 1253.49 419.084V130.884C1253.49 128.326 1255.2 126.194 1258.19 126.194H1258.61Z" fill="none" stroke="white" stroke-width="10" stroke-opacity="0.45" filter="url(#footer-wordmark-bezel-blur-_R_1bivdb_)" class="mix-blend-luminosity" opacity="0.95"></path></g><path d="M1258.61 126.194H1434.45C1437.01 126.194 1440 127.9 1440 130.884V221.266C1440 223.824 1437.44 225.956 1434.45 225.956H1393.05C1372.99 225.956 1356.35 242.583 1356.35 263.473V419.084C1356.35 421.642 1353.79 423.773 1350.8 423.773H1258.19C1255.63 423.773 1253.49 422.068 1253.49 419.084V130.884C1253.49 128.326 1255.2 126.194 1258.19 126.194H1258.61Z" fill="url(#footer-wordmark-glass-radial-_R_1bivdb_)" fill-opacity="0.35" stroke="url(#footer-wordmark-glass-linear-_R_1bivdb_)" stroke-opacity="1" stroke-width="1" class="mix-blend-luminosity" opacity="0.9"></path></g><g><g clip-path="url(#_R_1bivdb_-wm-clip-1)"><path d="M1076.37 122.783C1163.44 122.783 1227.46 190.57 1227.46 273.704C1227.46 356.838 1163.44 426.331 1076.37 426.331C989.307 426.331 923.58 356.839 923.58 273.704C923.58 190.57 989.734 122.783 1076.37 122.783ZM1075.52 221.266C1049.06 221.266 1026.87 239.598 1026.87 271.572V277.115C1026.87 309.09 1049.06 327.422 1075.52 327.422C1101.98 327.422 1122.04 309.09 1122.04 277.115V271.572C1122.04 239.598 1101.13 221.266 1075.52 221.266Z" fill-rule="evenodd" fill="none" stroke="white" stroke-width="10" stroke-opacity="0.45" filter="url(#footer-wordmark-bezel-blur-_R_1bivdb_)" class="mix-blend-luminosity" opacity="0.95"></path></g><path d="M1076.37 122.783C1163.44 122.783 1227.46 190.57 1227.46 273.704C1227.46 356.838 1163.44 426.331 1076.37 426.331C989.307 426.331 923.58 356.839 923.58 273.704C923.58 190.57 989.734 122.783 1076.37 122.783ZM1075.52 221.266C1049.06 221.266 1026.87 239.598 1026.87 271.572V277.115C1026.87 309.09 1049.06 327.422 1075.52 327.422C1101.98 327.422 1122.04 309.09 1122.04 277.115V271.572C1122.04 239.598 1101.13 221.266 1075.52 221.266Z" fill-rule="evenodd" fill="url(#footer-wordmark-glass-radial-_R_1bivdb_)" fill-opacity="0.35" stroke="url(#footer-wordmark-glass-linear-_R_1bivdb_)" stroke-opacity="1" stroke-width="1" class="mix-blend-luminosity" opacity="0.9"></path></g><g><g clip-path="url(#_R_1bivdb_-wm-clip-2)"><path d="M833.954 27.2852H741.34C738.353 27.2852 736.646 29.4168 736.646 31.9748V320.174C736.646 389.666 774.203 422.494 843.77 422.494H898.827C901.814 422.494 904.375 420.362 904.375 417.804V328.275C904.375 325.29 901.388 323.585 898.827 323.585H839.503V227.661H898.827C901.814 227.661 904.375 224.676 904.375 222.118V131.736C904.375 128.752 901.388 126.194 898.827 126.194H839.503V31.9748C839.503 28.9905 836.515 27.2852 833.954 27.2852Z" fill="none" stroke="white" stroke-width="10" stroke-opacity="0.45" filter="url(#footer-wordmark-bezel-blur-_R_1bivdb_)" class="mix-blend-luminosity" opacity="0.95"></path></g><path d="M833.954 27.2852H741.34C738.353 27.2852 736.646 29.4168 736.646 31.9748V320.174C736.646 389.666 774.203 422.494 843.77 422.494H898.827C901.814 422.494 904.375 420.362 904.375 417.804V328.275C904.375 325.29 901.388 323.585 898.827 323.585H839.503V227.661H898.827C901.814 227.661 904.375 224.676 904.375 222.118V131.736C904.375 128.752 901.388 126.194 898.827 126.194H839.503V31.9748C839.503 28.9905 836.515 27.2852 833.954 27.2852Z" fill="url(#footer-wordmark-glass-radial-_R_1bivdb_)" fill-opacity="0.35" stroke="url(#footer-wordmark-glass-linear-_R_1bivdb_)" stroke-opacity="1" stroke-width="1" class="mix-blend-luminosity" opacity="0.9"></path></g><g><g clip-path="url(#_R_1bivdb_-wm-clip-3)"><path d="M536.053 27.2852H444.382H443.865C440.878 27.2852 438.317 30.2695 438.317 32.8275V417.804C438.317 420.788 441.304 423.346 443.865 423.346H536.479C539.467 423.346 541.174 420.362 541.174 417.804V343.623C541.174 324.438 553.978 313.353 572.33 313.353C590.682 313.353 603.486 324.438 603.486 343.623V417.804C603.486 420.788 605.62 422.494 608.181 422.494H698.661C701.648 422.494 704.209 420.362 704.209 417.804L703.355 309.09C703.355 274.131 693.112 234.908 638.483 234.908L711.038 134.294C713.599 131.736 711.038 127.047 707.197 127.047H602.632C600.498 127.047 598.791 127.899 597.938 128.752L540.747 219.134V32.8275C540.747 29.8431 538.613 27.2852 536.053 27.2852Z" fill="none" stroke="white" stroke-width="10" stroke-opacity="0.45" filter="url(#footer-wordmark-bezel-blur-_R_1bivdb_)" class="mix-blend-luminosity" opacity="0.95"></path></g><path d="M536.053 27.2852H444.382H443.865C440.878 27.2852 438.317 30.2695 438.317 32.8275V417.804C438.317 420.788 441.304 423.346 443.865 423.346H536.479C539.467 423.346 541.174 420.362 541.174 417.804V343.623C541.174 324.438 553.978 313.353 572.33 313.353C590.682 313.353 603.486 324.438 603.486 343.623V417.804C603.486 420.788 605.62 422.494 608.181 422.494H698.661C701.648 422.494 704.209 420.362 704.209 417.804L703.355 309.09C703.355 274.131 693.112 234.908 638.483 234.908L711.038 134.294C713.599 131.736 711.038 127.047 707.197 127.047H602.632C600.498 127.047 598.791 127.899 597.938 128.752L540.747 219.134V32.8275C540.747 29.8431 538.613 27.2852 536.053 27.2852Z" fill="url(#footer-wordmark-glass-radial-_R_1bivdb_)" fill-opacity="0.35" stroke="url(#footer-wordmark-glass-linear-_R_1bivdb_)" stroke-opacity="1" stroke-width="1" class="mix-blend-luminosity" opacity="0.9"></path></g><g><g clip-path="url(#_R_1bivdb_-wm-clip-4)"><path d="M352.531 0H346.129C316.681 0 293.207 22.5955 293.207 52.865C293.207 83.1345 316.681 107.009 346.129 107.009H352.531C381.98 107.009 406.734 81.8555 406.734 52.865C406.734 23.8745 381.98 0 352.531 0Z" fill="none" stroke="white" stroke-width="10" stroke-opacity="0.45" filter="url(#footer-wordmark-bezel-blur-_R_1bivdb_)" class="mix-blend-luminosity" opacity="0.95"></path></g><path d="M352.531 0H346.129C316.681 0 293.207 22.5955 293.207 52.865C293.207 83.1345 316.681 107.009 346.129 107.009H352.531C381.98 107.009 406.734 81.8555 406.734 52.865C406.734 23.8745 381.98 0 352.531 0Z" fill="url(#footer-wordmark-glass-radial-_R_1bivdb_)" fill-opacity="0.35" stroke="url(#footer-wordmark-glass-linear-_R_1bivdb_)" stroke-opacity="1" stroke-width="1" class="mix-blend-luminosity" opacity="0.9"></path></g><g><g clip-path="url(#_R_1bivdb_-wm-clip-5)"><path d="M395.637 126.194H303.023C300.036 126.194 298.329 128.326 298.329 130.884V418.23C298.329 421.215 300.463 423.773 303.023 423.773H395.637C398.625 423.773 401.186 420.788 401.186 418.23V130.884C401.186 127.899 398.198 126.194 395.637 126.194Z" fill="none" stroke="white" stroke-width="10" stroke-opacity="0.45" filter="url(#footer-wordmark-bezel-blur-_R_1bivdb_)" class="mix-blend-luminosity" opacity="0.95"></path></g><path d="M395.637 126.194H303.023C300.036 126.194 298.329 128.326 298.329 130.884V418.23C298.329 421.215 300.463 423.773 303.023 423.773H395.637C398.625 423.773 401.186 420.788 401.186 418.23V130.884C401.186 127.899 398.198 126.194 395.637 126.194Z" fill="url(#footer-wordmark-glass-radial-_R_1bivdb_)" fill-opacity="0.35" stroke="url(#footer-wordmark-glass-linear-_R_1bivdb_)" stroke-opacity="1" stroke-width="1" class="mix-blend-luminosity" opacity="0.9"></path></g><g><g clip-path="url(#_R_1bivdb_-wm-clip-6)"><path d="M98.1624 126.194H4.69472C1.70717 126.194 0 128.326 0 130.884V418.657C0 421.641 2.13397 423.347 4.69472 423.347H111.393C197.605 423.347 262.478 373.04 262.478 308.238V130.884C262.478 127.9 260.344 126.194 257.783 126.194H164.315C161.328 126.194 159.621 128.326 159.621 130.884V281.805C159.621 311.222 145.963 325.717 118.648 325.717H102.857V130.884C102.857 127.9 100.723 126.194 98.1624 126.194Z" fill="none" stroke="white" stroke-width="10" stroke-opacity="0.45" filter="url(#footer-wordmark-bezel-blur-_R_1bivdb_)" class="mix-blend-luminosity" opacity="0.95"></path></g><path d="M98.1624 126.194H4.69472C1.70717 126.194 0 128.326 0 130.884V418.657C0 421.641 2.13397 423.347 4.69472 423.347H111.393C197.605 423.347 262.478 373.04 262.478 308.238V130.884C262.478 127.9 260.344 126.194 257.783 126.194H164.315C161.328 126.194 159.621 128.326 159.621 130.884V281.805C159.621 311.222 145.963 325.717 118.648 325.717H102.857V130.884C102.857 127.9 100.723 126.194 98.1624 126.194Z" fill="url(#footer-wordmark-glass-radial-_R_1bivdb_)" fill-opacity="0.35" stroke="url(#footer-wordmark-glass-linear-_R_1bivdb_)" stroke-opacity="1" stroke-width="1" class="mix-blend-luminosity" opacity="0.9"></path></g></svg>