<svg xmlns="http://www.w3.org/2000/svg" width="40" height="40" viewBox="0 0 40 40" fill="none" role="img" aria-label="GDPR badge">
  <circle cx="20" cy="20" r="19.25" fill="#1F55D6" stroke="#D7E3FF" stroke-width="1.5"/>
  <path fill="#F8D247" d="m20 6.8.62 1.24 1.37.2-.99.97.23 1.37L20 9.94l-1.23.64.23-1.37-.99-.97 1.37-.2L20 6.8Zm8.33 3.45.62 1.24 1.37.2-.99.97.23 1.37-1.23-.64-1.23.64.23-1.37-.99-.97 1.37-.2.62-1.24Zm3.45 8.33.62 1.24 1.37.2-.99.97.23 1.37-1.23-.64-1.23.64.23-1.37-.99-.97 1.37-.2.62-1.24Zm-3.45 8.33.62 1.24 1.37.2-.99.97.23 1.37-1.23-.64-1.23.64.23-1.37-.99-.97 1.37-.2.62-1.24ZM20 30.36l.62 1.24 1.37.2-.99.97.23 1.37L20 33.5l-1.23.64.23-1.37-.99-.97 1.37-.2.62-1.24Zm-8.33-3.45.62 1.24 1.37.2-.99.97.23 1.37-1.23-.64-1.23.64.23-1.37-.99-.97 1.37-.2.62-1.24Zm-3.45-8.33.62 1.24 1.37.2-.99.97.23 1.37-1.23-.64-1.23.64.23-1.37-.99-.97 1.37-.2.62-1.24Zm3.45-8.33.62 1.24 1.37.2-.99.97.23 1.37-1.23-.64-1.23.64.23-1.37-.99-.97 1.37-.2.62-1.24Z"/>
  <text x="20" y="23.8" text-anchor="middle" fill="#FFFFFF" font-family="Inter, Arial, sans-serif" font-size="8.4" font-weight="800" letter-spacing=".04em">GDPR</text>
</svg>
