<svg width="1723" height="460" viewBox="0 0 1938 518" fill="none" xmlns="http://www.w3.org/2000/svg" overflow="visible" aria-hidden="true">
  <defs>
    <radialGradient id="gomer-wm-radial" cx="50%" cy="32%" r="72%" gradientUnits="objectBoundingBox">
      <stop stop-color="white" stop-opacity="0.18"/>
      <stop offset="1" stop-color="white" stop-opacity="0.42"/>
    </radialGradient>
    <linearGradient id="gomer-wm-linear" x1="0%" y1="0%" x2="100%" y2="100%" gradientUnits="objectBoundingBox">
      <stop stop-color="white" stop-opacity="0.7"/>
      <stop offset="0.38" stop-color="white" stop-opacity="0"/>
      <stop offset="0.62" stop-color="white" stop-opacity="0"/>
      <stop offset="1" stop-color="white" stop-opacity="0.7"/>
    </linearGradient>
    <filter id="gomer-wm-bezel" x="-40%" y="-40%" width="180%" height="180%" color-interpolation-filters="sRGB">
      <feGaussianBlur in="SourceGraphic" stdDeviation="4"/>
    </filter>
    <clipPath id="gomer-wm-clip-0"><path d="M284.38 82.11000000000001V40.24000000000001H375.01V335.45000000000005Q375.01 376.26 358.845 409.385Q342.68 442.51 309.555 462.12Q276.43 481.73 227.14000000000001 481.73Q161.42000000000002 481.73 120.61000000000001 450.725Q79.8 419.72 73.97 366.72H163.54000000000002Q167.78 383.68 183.68 393.485Q199.58 403.29 222.9 403.29Q250.99 403.29 267.685 387.125Q284.38 370.96000000000004 284.38 335.45000000000005V293.58000000000004Q271.13 314.25 247.81 327.235Q224.49 340.22 193.22 340.22Q156.65 340.22 126.97 321.40500000000003Q97.28999999999999 302.59000000000003 80.065 267.875Q62.84 233.16000000000003 62.84 187.58Q62.84 142.0 80.065 107.55000000000001Q97.28999999999999 73.10000000000002 126.97 54.55000000000001Q156.65 36.0 193.22 36.0Q224.49 36.0 248.07500000000002 48.72Q271.66 61.44 284.38 82.11000000000001ZM219.72 114.97Q192.69 114.97 173.875 134.315Q155.06 153.66 155.06 187.58Q155.06 221.5 173.875 241.375Q192.69 261.25 219.72 261.25Q246.75 261.25 265.565 241.64000000000001Q284.38 222.03000000000003 284.38 188.11Q284.38 154.19 265.565 134.57999999999998Q246.75 114.97 219.72 114.97Z"/></clipPath>
    <clipPath id="gomer-wm-clip-1"><path d="M430.13 188.11Q430.13 142.53 450.27 107.81500000000001Q470.41 73.10000000000002 505.39 54.55000000000001Q540.37 36.0 583.83 36.0Q627.29 36.0 662.27 54.55000000000001Q697.25 73.10000000000002 717.39 107.81500000000001Q737.53 142.53 737.53 188.11Q737.53 233.69 717.125 268.405Q696.72 303.12 661.475 321.67Q626.23 340.22 582.77 340.22Q539.3100000000001 340.22 504.595 321.67Q469.88 303.12 450.005 268.67Q430.13 234.22000000000003 430.13 188.11ZM645.3100000000001 188.11Q645.3100000000001 152.60000000000002 627.5550000000001 133.52Q609.8000000000001 114.44 583.83 114.44Q557.33 114.44 539.84 133.255Q522.35 152.07000000000002 522.35 188.11Q522.35 223.62 539.575 242.70000000000002Q556.8000000000001 261.78000000000003 582.77 261.78000000000003Q608.74 261.78000000000003 627.0250000000001 242.70000000000002Q645.3100000000001 223.62 645.3100000000001 188.11Z"/></clipPath>
    <clipPath id="gomer-wm-clip-2"><path d="M1290.85 163.20000000000002V335.98H1200.75V175.39000000000001Q1200.75 146.77 1185.645 131.135Q1170.54 115.5 1144.04 115.5Q1117.54 115.5 1102.435 131.135Q1087.33 146.77 1087.33 175.39000000000001V335.98H997.23V175.39000000000001Q997.23 146.77 982.125 131.135Q967.0200000000001 115.5 940.5200000000001 115.5Q914.0200000000001 115.5 898.9150000000001 131.135Q883.8100000000001 146.77 883.8100000000001 175.39000000000001V335.98H793.1800000000001V40.24000000000001H883.8100000000001V77.34000000000003Q897.59 58.79000000000002 919.8500000000001 47.92500000000001Q942.1100000000001 37.06 970.2 37.06Q1003.59 37.06 1029.825 51.370000000000005Q1056.06 65.68 1070.9 92.18Q1086.27 67.80000000000001 1112.77 52.43000000000001Q1139.27 37.06 1170.54 37.06Q1225.66 37.06 1258.255 70.45Q1290.85 103.84 1290.85 163.20000000000002Z"/></clipPath>
    <clipPath id="gomer-wm-clip-3"><path d="M1639.06 209.84000000000003H1433.95Q1436.07 237.40000000000003 1451.705 251.97500000000002Q1467.34 266.55 1490.13 266.55Q1524.05 266.55 1537.3 237.93H1633.76Q1626.3400000000001 267.08000000000004 1606.9950000000001 290.40000000000003Q1587.65 313.72 1558.5 326.97Q1529.35 340.22 1493.31 340.22Q1449.85 340.22 1415.9299999999998 321.67Q1382.01 303.12 1362.9299999999998 268.67Q1343.85 234.22000000000003 1343.85 188.11Q1343.85 142.0 1362.665 107.55000000000001Q1381.48 73.10000000000002 1415.4 54.55000000000001Q1449.32 36.0 1493.31 36.0Q1536.24 36.0 1569.63 54.02000000000001Q1603.02 72.04000000000002 1621.835 105.43000000000002Q1640.65 138.82000000000002 1640.65 183.34Q1640.65 196.06 1639.06 209.84000000000003ZM1547.9 159.49Q1547.9 136.17000000000002 1532.0 122.39000000000001Q1516.1 108.61000000000001 1492.25 108.61000000000001Q1469.46 108.61000000000001 1453.825 121.86000000000001Q1438.19 135.11 1434.48 159.49Z"/></clipPath>
    <clipPath id="gomer-wm-clip-4"><path d="M1879.15 37.06V132.99H1854.24Q1820.3200000000002 132.99 1803.3600000000001 147.565Q1786.4 162.14000000000001 1786.4 198.71V335.98H1695.77V40.24000000000001H1786.4V89.53Q1802.3000000000002 65.14999999999998 1826.15 51.10499999999999Q1850.0 37.06 1879.15 37.06Z"/></clipPath>
  </defs>

  <g>
    <g clip-path="url(#gomer-wm-clip-0)">
      <path d="M284.38 82.11000000000001V40.24000000000001H375.01V335.45000000000005Q375.01 376.26 358.845 409.385Q342.68 442.51 309.555 462.12Q276.43 481.73 227.14000000000001 481.73Q161.42000000000002 481.73 120.61000000000001 450.725Q79.8 419.72 73.97 366.72H163.54000000000002Q167.78 383.68 183.68 393.485Q199.58 403.29 222.9 403.29Q250.99 403.29 267.685 387.125Q284.38 370.96000000000004 284.38 335.45000000000005V293.58000000000004Q271.13 314.25 247.81 327.235Q224.49 340.22 193.22 340.22Q156.65 340.22 126.97 321.40500000000003Q97.28999999999999 302.59000000000003 80.065 267.875Q62.84 233.16000000000003 62.84 187.58Q62.84 142.0 80.065 107.55000000000001Q97.28999999999999 73.10000000000002 126.97 54.55000000000001Q156.65 36.0 193.22 36.0Q224.49 36.0 248.07500000000002 48.72Q271.66 61.44 284.38 82.11000000000001ZM219.72 114.97Q192.69 114.97 173.875 134.315Q155.06 153.66 155.06 187.58Q155.06 221.5 173.875 241.375Q192.69 261.25 219.72 261.25Q246.75 261.25 265.565 241.64000000000001Q284.38 222.03000000000003 284.38 188.11Q284.38 154.19 265.565 134.57999999999998Q246.75 114.97 219.72 114.97Z" fill="none" stroke="white" stroke-width="10" stroke-opacity="0.45" filter="url(#gomer-wm-bezel)" class="mix-blend-luminosity" opacity="0.95"/>
    </g>
    <path d="M284.38 82.11000000000001V40.24000000000001H375.01V335.45000000000005Q375.01 376.26 358.845 409.385Q342.68 442.51 309.555 462.12Q276.43 481.73 227.14000000000001 481.73Q161.42000000000002 481.73 120.61000000000001 450.725Q79.8 419.72 73.97 366.72H163.54000000000002Q167.78 383.68 183.68 393.485Q199.58 403.29 222.9 403.29Q250.99 403.29 267.685 387.125Q284.38 370.96000000000004 284.38 335.45000000000005V293.58000000000004Q271.13 314.25 247.81 327.235Q224.49 340.22 193.22 340.22Q156.65 340.22 126.97 321.40500000000003Q97.28999999999999 302.59000000000003 80.065 267.875Q62.84 233.16000000000003 62.84 187.58Q62.84 142.0 80.065 107.55000000000001Q97.28999999999999 73.10000000000002 126.97 54.55000000000001Q156.65 36.0 193.22 36.0Q224.49 36.0 248.07500000000002 48.72Q271.66 61.44 284.38 82.11000000000001ZM219.72 114.97Q192.69 114.97 173.875 134.315Q155.06 153.66 155.06 187.58Q155.06 221.5 173.875 241.375Q192.69 261.25 219.72 261.25Q246.75 261.25 265.565 241.64000000000001Q284.38 222.03000000000003 284.38 188.11Q284.38 154.19 265.565 134.57999999999998Q246.75 114.97 219.72 114.97Z" fill="url(#gomer-wm-radial)" fill-opacity="0.35" stroke="url(#gomer-wm-linear)" stroke-opacity="1" stroke-width="1" class="mix-blend-luminosity" opacity="0.9"/>
  </g>
  <g>
    <g clip-path="url(#gomer-wm-clip-1)">
      <path d="M430.13 188.11Q430.13 142.53 450.27 107.81500000000001Q470.41 73.10000000000002 505.39 54.55000000000001Q540.37 36.0 583.83 36.0Q627.29 36.0 662.27 54.55000000000001Q697.25 73.10000000000002 717.39 107.81500000000001Q737.53 142.53 737.53 188.11Q737.53 233.69 717.125 268.405Q696.72 303.12 661.475 321.67Q626.23 340.22 582.77 340.22Q539.3100000000001 340.22 504.595 321.67Q469.88 303.12 450.005 268.67Q430.13 234.22000000000003 430.13 188.11ZM645.3100000000001 188.11Q645.3100000000001 152.60000000000002 627.5550000000001 133.52Q609.8000000000001 114.44 583.83 114.44Q557.33 114.44 539.84 133.255Q522.35 152.07000000000002 522.35 188.11Q522.35 223.62 539.575 242.70000000000002Q556.8000000000001 261.78000000000003 582.77 261.78000000000003Q608.74 261.78000000000003 627.0250000000001 242.70000000000002Q645.3100000000001 223.62 645.3100000000001 188.11Z" fill="none" stroke="white" stroke-width="10" stroke-opacity="0.45" filter="url(#gomer-wm-bezel)" class="mix-blend-luminosity" opacity="0.95"/>
    </g>
    <path d="M430.13 188.11Q430.13 142.53 450.27 107.81500000000001Q470.41 73.10000000000002 505.39 54.55000000000001Q540.37 36.0 583.83 36.0Q627.29 36.0 662.27 54.55000000000001Q697.25 73.10000000000002 717.39 107.81500000000001Q737.53 142.53 737.53 188.11Q737.53 233.69 717.125 268.405Q696.72 303.12 661.475 321.67Q626.23 340.22 582.77 340.22Q539.3100000000001 340.22 504.595 321.67Q469.88 303.12 450.005 268.67Q430.13 234.22000000000003 430.13 188.11ZM645.3100000000001 188.11Q645.3100000000001 152.60000000000002 627.5550000000001 133.52Q609.8000000000001 114.44 583.83 114.44Q557.33 114.44 539.84 133.255Q522.35 152.07000000000002 522.35 188.11Q522.35 223.62 539.575 242.70000000000002Q556.8000000000001 261.78000000000003 582.77 261.78000000000003Q608.74 261.78000000000003 627.0250000000001 242.70000000000002Q645.3100000000001 223.62 645.3100000000001 188.11Z" fill="url(#gomer-wm-radial)" fill-opacity="0.35" stroke="url(#gomer-wm-linear)" stroke-opacity="1" stroke-width="1" class="mix-blend-luminosity" opacity="0.9"/>
  </g>
  <g>
    <g clip-path="url(#gomer-wm-clip-2)">
      <path d="M1290.85 163.20000000000002V335.98H1200.75V175.39000000000001Q1200.75 146.77 1185.645 131.135Q1170.54 115.5 1144.04 115.5Q1117.54 115.5 1102.435 131.135Q1087.33 146.77 1087.33 175.39000000000001V335.98H997.23V175.39000000000001Q997.23 146.77 982.125 131.135Q967.0200000000001 115.5 940.5200000000001 115.5Q914.0200000000001 115.5 898.9150000000001 131.135Q883.8100000000001 146.77 883.8100000000001 175.39000000000001V335.98H793.1800000000001V40.24000000000001H883.8100000000001V77.34000000000003Q897.59 58.79000000000002 919.8500000000001 47.92500000000001Q942.1100000000001 37.06 970.2 37.06Q1003.59 37.06 1029.825 51.370000000000005Q1056.06 65.68 1070.9 92.18Q1086.27 67.80000000000001 1112.77 52.43000000000001Q1139.27 37.06 1170.54 37.06Q1225.66 37.06 1258.255 70.45Q1290.85 103.84 1290.85 163.20000000000002Z" fill="none" stroke="white" stroke-width="10" stroke-opacity="0.45" filter="url(#gomer-wm-bezel)" class="mix-blend-luminosity" opacity="0.95"/>
    </g>
    <path d="M1290.85 163.20000000000002V335.98H1200.75V175.39000000000001Q1200.75 146.77 1185.645 131.135Q1170.54 115.5 1144.04 115.5Q1117.54 115.5 1102.435 131.135Q1087.33 146.77 1087.33 175.39000000000001V335.98H997.23V175.39000000000001Q997.23 146.77 982.125 131.135Q967.0200000000001 115.5 940.5200000000001 115.5Q914.0200000000001 115.5 898.9150000000001 131.135Q883.8100000000001 146.77 883.8100000000001 175.39000000000001V335.98H793.1800000000001V40.24000000000001H883.8100000000001V77.34000000000003Q897.59 58.79000000000002 919.8500000000001 47.92500000000001Q942.1100000000001 37.06 970.2 37.06Q1003.59 37.06 1029.825 51.370000000000005Q1056.06 65.68 1070.9 92.18Q1086.27 67.80000000000001 1112.77 52.43000000000001Q1139.27 37.06 1170.54 37.06Q1225.66 37.06 1258.255 70.45Q1290.85 103.84 1290.85 163.20000000000002Z" fill="url(#gomer-wm-radial)" fill-opacity="0.35" stroke="url(#gomer-wm-linear)" stroke-opacity="1" stroke-width="1" class="mix-blend-luminosity" opacity="0.9"/>
  </g>
  <g>
    <g clip-path="url(#gomer-wm-clip-3)">
      <path d="M1639.06 209.84000000000003H1433.95Q1436.07 237.40000000000003 1451.705 251.97500000000002Q1467.34 266.55 1490.13 266.55Q1524.05 266.55 1537.3 237.93H1633.76Q1626.3400000000001 267.08000000000004 1606.9950000000001 290.40000000000003Q1587.65 313.72 1558.5 326.97Q1529.35 340.22 1493.31 340.22Q1449.85 340.22 1415.9299999999998 321.67Q1382.01 303.12 1362.9299999999998 268.67Q1343.85 234.22000000000003 1343.85 188.11Q1343.85 142.0 1362.665 107.55000000000001Q1381.48 73.10000000000002 1415.4 54.55000000000001Q1449.32 36.0 1493.31 36.0Q1536.24 36.0 1569.63 54.02000000000001Q1603.02 72.04000000000002 1621.835 105.43000000000002Q1640.65 138.82000000000002 1640.65 183.34Q1640.65 196.06 1639.06 209.84000000000003ZM1547.9 159.49Q1547.9 136.17000000000002 1532.0 122.39000000000001Q1516.1 108.61000000000001 1492.25 108.61000000000001Q1469.46 108.61000000000001 1453.825 121.86000000000001Q1438.19 135.11 1434.48 159.49Z" fill="none" stroke="white" stroke-width="10" stroke-opacity="0.45" filter="url(#gomer-wm-bezel)" class="mix-blend-luminosity" opacity="0.95"/>
    </g>
    <path d="M1639.06 209.84000000000003H1433.95Q1436.07 237.40000000000003 1451.705 251.97500000000002Q1467.34 266.55 1490.13 266.55Q1524.05 266.55 1537.3 237.93H1633.76Q1626.3400000000001 267.08000000000004 1606.9950000000001 290.40000000000003Q1587.65 313.72 1558.5 326.97Q1529.35 340.22 1493.31 340.22Q1449.85 340.22 1415.9299999999998 321.67Q1382.01 303.12 1362.9299999999998 268.67Q1343.85 234.22000000000003 1343.85 188.11Q1343.85 142.0 1362.665 107.55000000000001Q1381.48 73.10000000000002 1415.4 54.55000000000001Q1449.32 36.0 1493.31 36.0Q1536.24 36.0 1569.63 54.02000000000001Q1603.02 72.04000000000002 1621.835 105.43000000000002Q1640.65 138.82000000000002 1640.65 183.34Q1640.65 196.06 1639.06 209.84000000000003ZM1547.9 159.49Q1547.9 136.17000000000002 1532.0 122.39000000000001Q1516.1 108.61000000000001 1492.25 108.61000000000001Q1469.46 108.61000000000001 1453.825 121.86000000000001Q1438.19 135.11 1434.48 159.49Z" fill="url(#gomer-wm-radial)" fill-opacity="0.35" stroke="url(#gomer-wm-linear)" stroke-opacity="1" stroke-width="1" class="mix-blend-luminosity" opacity="0.9"/>
  </g>
  <g>
    <g clip-path="url(#gomer-wm-clip-4)">
      <path d="M1879.15 37.06V132.99H1854.24Q1820.3200000000002 132.99 1803.3600000000001 147.565Q1786.4 162.14000000000001 1786.4 198.71V335.98H1695.77V40.24000000000001H1786.4V89.53Q1802.3000000000002 65.14999999999998 1826.15 51.10499999999999Q1850.0 37.06 1879.15 37.06Z" fill="none" stroke="white" stroke-width="10" stroke-opacity="0.45" filter="url(#gomer-wm-bezel)" class="mix-blend-luminosity" opacity="0.95"/>
    </g>
    <path d="M1879.15 37.06V132.99H1854.24Q1820.3200000000002 132.99 1803.3600000000001 147.565Q1786.4 162.14000000000001 1786.4 198.71V335.98H1695.77V40.24000000000001H1786.4V89.53Q1802.3000000000002 65.14999999999998 1826.15 51.10499999999999Q1850.0 37.06 1879.15 37.06Z" fill="url(#gomer-wm-radial)" fill-opacity="0.35" stroke="url(#gomer-wm-linear)" stroke-opacity="1" stroke-width="1" class="mix-blend-luminosity" opacity="0.9"/>
  </g>
</svg>
