<svg width="22" height="24" viewBox="0 0 22 24" fill="none" xmlns="http://www.w3.org/2000/svg">
<g clip-path="url(#clip0_1122_3208)">
<path d="M11 10.1052H18.3333C20.3584 10.1052 22 11.8018 22 13.8947V20.2105C22 22.3034 20.3584 24 18.3333 24C16.3083 24 14.6667 22.3034 14.6667 20.2105V13.8947C14.6667 11.8018 13.025 10.1052 11 10.1052Z" fill="url(#paint0_radial_1122_3208)"/>
<path d="M2.44482 12.6316C2.44482 10.5388 4.08646 8.84216 6.1115 8.84216H11.0004C13.0254 8.84216 14.6671 10.5388 14.6671 12.6316V20.2106C14.6671 22.3034 16.3087 24.0001 18.3337 24.0001L8.55589 24C5.18084 24 2.44482 21.1724 2.44482 17.6842V12.6316Z" fill="url(#paint1_radial_1122_3208)"/>
<path d="M2.44482 12.6316C2.44482 10.5388 4.08646 8.84216 6.1115 8.84216H11.0004C13.0254 8.84216 14.6671 10.5388 14.6671 12.6316V20.2106C14.6671 22.3034 16.3087 24.0001 18.3337 24.0001L8.55589 24C5.18084 24 2.44482 21.1724 2.44482 17.6842V12.6316Z" fill="url(#paint2_linear_1122_3208)" fill-opacity="0.7"/>
<path d="M2.44482 12.6316C2.44482 10.5388 4.08646 8.84216 6.1115 8.84216H11.0004C13.0254 8.84216 14.6671 10.5388 14.6671 12.6316V20.2106C14.6671 22.3034 16.3087 24.0001 18.3337 24.0001L8.55589 24C5.18084 24 2.44482 21.1724 2.44482 17.6842V12.6316Z" fill="url(#paint3_radial_1122_3208)" fill-opacity="0.7"/>
<path d="M17.7225 8.84216C19.4101 8.84216 20.7781 7.4283 20.7781 5.68426C20.7781 3.94022 19.4101 2.52637 17.7225 2.52637C16.035 2.52637 14.667 3.94022 14.667 5.68426C14.667 7.4283 16.035 8.84216 17.7225 8.84216Z" fill="url(#paint4_radial_1122_3208)"/>
<path d="M17.7225 8.84216C19.4101 8.84216 20.7781 7.4283 20.7781 5.68426C20.7781 3.94022 19.4101 2.52637 17.7225 2.52637C16.035 2.52637 14.667 3.94022 14.667 5.68426C14.667 7.4283 16.035 8.84216 17.7225 8.84216Z" fill="url(#paint5_radial_1122_3208)" fill-opacity="0.46"/>
<path d="M17.7225 8.84216C19.4101 8.84216 20.7781 7.4283 20.7781 5.68426C20.7781 3.94022 19.4101 2.52637 17.7225 2.52637C16.035 2.52637 14.667 3.94022 14.667 5.68426C14.667 7.4283 16.035 8.84216 17.7225 8.84216Z" fill="url(#paint6_radial_1122_3208)" fill-opacity="0.4"/>
<path d="M8.55583 7.57895C10.5809 7.57895 12.2225 5.88234 12.2225 3.78947C12.2225 1.6966 10.5809 0 8.55583 0C6.53079 0 4.88916 1.6966 4.88916 3.78947C4.88916 5.88234 6.53079 7.57895 8.55583 7.57895Z" fill="url(#paint7_radial_1122_3208)"/>
<path d="M8.55583 7.57895C10.5809 7.57895 12.2225 5.88234 12.2225 3.78947C12.2225 1.6966 10.5809 0 8.55583 0C6.53079 0 4.88916 1.6966 4.88916 3.78947C4.88916 5.88234 6.53079 7.57895 8.55583 7.57895Z" fill="url(#paint8_radial_1122_3208)" fill-opacity="0.6"/>
<path d="M8.55583 7.57895C10.5809 7.57895 12.2225 5.88234 12.2225 3.78947C12.2225 1.6966 10.5809 0 8.55583 0C6.53079 0 4.88916 1.6966 4.88916 3.78947C4.88916 5.88234 6.53079 7.57895 8.55583 7.57895Z" fill="url(#paint9_radial_1122_3208)" fill-opacity="0.5"/>
<path d="M7.79167 12H1.98611C0.889212 12 0 12.919 0 14.0526V20.0526C0 21.1863 0.889212 22.1053 1.98611 22.1053H7.79167C8.88857 22.1053 9.77778 21.1863 9.77778 20.0526V14.0526C9.77778 12.919 8.88857 12 7.79167 12Z" fill="url(#paint10_radial_1122_3208)"/>
<path d="M7.79167 12H1.98611C0.889212 12 0 12.919 0 14.0526V20.0526C0 21.1863 0.889212 22.1053 1.98611 22.1053H7.79167C8.88857 22.1053 9.77778 21.1863 9.77778 20.0526V14.0526C9.77778 12.919 8.88857 12 7.79167 12Z" fill="url(#paint11_radial_1122_3208)" fill-opacity="0.7"/>
<path d="M7.01545 15.2244H5.52V19.9398H4.25818V15.2244H2.7627V14.1654H7.01545V15.2244Z" fill="white"/>
</g>
<defs>
<radialGradient id="paint0_radial_1122_3208" cx="0" cy="0" r="1" gradientUnits="userSpaceOnUse" gradientTransform="translate(21.8758 11.4782) scale(8.2368 21.0123)">
<stop stop-color="#A98AFF"/>
<stop offset="0.14" stop-color="#8C75FF"/>
<stop offset="0.565" stop-color="#5F50E2"/>
<stop offset="0.9" stop-color="#3C2CB8"/>
</radialGradient>
<radialGradient id="paint1_radial_1122_3208" cx="0" cy="0" r="1" gradientTransform="matrix(7.44792 19.2 -18.7883 7.78459 2.94135 7.83164)" gradientUnits="userSpaceOnUse">
<stop stop-color="#85C2FF"/>
<stop offset="0.69" stop-color="#7588FF"/>
<stop offset="1" stop-color="#6459FE"/>
</radialGradient>
<linearGradient id="paint2_linear_1122_3208" x1="10.141" y1="8.84216" x2="10.141" y2="24.0001" gradientUnits="userSpaceOnUse">
<stop offset="0.801159" stop-color="#6864F6" stop-opacity="0"/>
<stop offset="1" stop-color="#5149DE"/>
</linearGradient>
<radialGradient id="paint3_radial_1122_3208" cx="0" cy="0" r="1" gradientTransform="matrix(-4.65046 11.146 -8.65723 -3.85808 14.3615 8.3369)" gradientUnits="userSpaceOnUse">
<stop stop-color="#BD96FF"/>
<stop offset="0.686685" stop-color="#BD96FF" stop-opacity="0"/>
</radialGradient>
<radialGradient id="paint4_radial_1122_3208" cx="0" cy="0" r="1" gradientUnits="userSpaceOnUse" gradientTransform="translate(17.7225 4.78199) rotate(-90) scale(6.31579 7.7132)">
<stop offset="0.268201" stop-color="#6868F7"/>
<stop offset="1" stop-color="#3923B1"/>
</radialGradient>
<radialGradient id="paint5_radial_1122_3208" cx="0" cy="0" r="1" gradientTransform="matrix(3.34292 2.9043 -4.06461 4.9971 15.1972 4.1331)" gradientUnits="userSpaceOnUse">
<stop offset="0.270711" stop-color="#A1D3FF"/>
<stop offset="0.813393" stop-color="#A1D3FF" stop-opacity="0"/>
</radialGradient>
<radialGradient id="paint6_radial_1122_3208" cx="0" cy="0" r="1" gradientTransform="matrix(3.88672 -3.57366 8.48234 9.85374 20.1561 4.02233)" gradientUnits="userSpaceOnUse">
<stop stop-color="#E3ACFD"/>
<stop offset="0.816041" stop-color="#9FA2FF" stop-opacity="0"/>
</radialGradient>
<radialGradient id="paint7_radial_1122_3208" cx="0" cy="0" r="1" gradientUnits="userSpaceOnUse" gradientTransform="translate(8.55583 2.70676) rotate(-90) scale(7.57895 9.25589)">
<stop offset="0.268201" stop-color="#8282FF"/>
<stop offset="1" stop-color="#3923B1"/>
</radialGradient>
<radialGradient id="paint8_radial_1122_3208" cx="0" cy="0" r="1" gradientTransform="matrix(4.0115 3.48516 -4.8775 5.99649 5.52545 1.92811)" gradientUnits="userSpaceOnUse">
<stop offset="0.270711" stop-color="#A1D3FF"/>
<stop offset="0.813393" stop-color="#A1D3FF" stop-opacity="0"/>
</radialGradient>
<radialGradient id="paint9_radial_1122_3208" cx="0" cy="0" r="1" gradientTransform="matrix(4.66406 -4.28839 10.1788 11.8245 11.4761 1.79514)" gradientUnits="userSpaceOnUse">
<stop stop-color="#E3ACFD"/>
<stop offset="0.816041" stop-color="#9FA2FF" stop-opacity="0"/>
</radialGradient>
<radialGradient id="paint10_radial_1122_3208" cx="0" cy="0" r="1" gradientTransform="matrix(9.77777 10.1053 -9.77777 10.1053 0 12)" gradientUnits="userSpaceOnUse">
<stop offset="0.046875" stop-color="#688EFF"/>
<stop offset="0.946875" stop-color="#230F94"/>
</radialGradient>
<radialGradient id="paint11_radial_1122_3208" cx="0" cy="0" r="1" gradientUnits="userSpaceOnUse" gradientTransform="translate(4.88889 18.0632) rotate(90) scale(7.07368 7.98734)">
<stop offset="0.570647" stop-color="#6965F6" stop-opacity="0"/>
<stop offset="1" stop-color="#8F8FFF"/>
</radialGradient>
<clipPath id="clip0_1122_3208">
<rect width="22" height="24" fill="white"/>
</clipPath>
</defs>
</svg>
