<svg width="217" height="64" viewBox="0 0 217 64" fill="none" xmlns="http://www.w3.org/2000/svg">
<path d="M51.904 0H52.864C57.28 0 60.992 3.584 60.992 7.936C60.992 12.288 57.28 16.064 52.864 16.064H51.904C47.488 16.064 43.968 12.48 43.968 7.936C43.968 3.392 47.488 0 51.904 0ZM161.28 33.216C157.312 33.216 153.984 35.968 153.984 40.768V41.6C153.984 46.4 157.312 49.152 161.28 49.152C165.248 49.152 168.256 46.4 168.256 41.6V40.768C168.256 35.968 165.12 33.216 161.28 33.216ZM188.736 18.944H215.104C215.488 18.944 215.936 19.2 215.936 19.648V33.216C215.936 33.6 215.552 33.92 215.104 33.92H208.896C205.888 33.92 203.392 36.416 203.392 39.552V62.912C203.392 63.296 203.008 63.616 202.56 63.616H188.672C188.288 63.616 187.968 63.36 187.968 62.912V19.648C187.968 19.264 188.224 18.944 188.672 18.944H188.736ZM111.168 4.096H125.056C125.44 4.096 125.888 4.352 125.888 4.8V18.944H134.784C135.168 18.944 135.616 19.328 135.616 19.776V33.344C135.616 33.728 135.232 34.176 134.784 34.176H125.888V48.576H134.784C135.168 48.576 135.616 48.832 135.616 49.28V62.72C135.616 63.104 135.232 63.424 134.784 63.424H126.528C116.096 63.424 110.464 58.496 110.464 48.064V4.8C110.464 4.416 110.72 4.096 111.168 4.096ZM0.704 18.944H14.72C15.104 18.944 15.424 19.2 15.424 19.648V48.896H17.792C21.888 48.896 23.936 46.72 23.936 42.304V19.648C23.936 19.264 24.192 18.944 24.64 18.944H38.656C39.04 18.944 39.36 19.2 39.36 19.648V46.272C39.36 56 29.632 63.552 16.704 63.552H0.704C0.32 63.552 0 63.296 0 62.848V19.648C0 19.264 0.256 18.944 0.704 18.944ZM66.6375 4.096H80.384C80.768 4.096 81.088 4.48 81.088 4.928V32.896L89.664 19.328C89.792 19.2 90.048 19.072 90.368 19.072H106.048C106.624 19.072 107.008 19.776 106.624 20.16L95.744 35.264C103.936 35.264 105.472 41.152 105.472 46.4L105.6 62.72C105.6 63.104 105.216 63.424 104.768 63.424H91.2C90.816 63.424 90.496 63.168 90.496 62.72V51.584C90.496 48.704 88.576 47.04 85.824 47.04C83.072 47.04 81.152 48.704 81.152 51.584V62.72C81.152 63.104 80.896 63.552 80.448 63.552H66.56C66.176 63.552 65.728 63.168 65.728 62.72V4.928C65.728 4.544 66.112 4.096 66.56 4.096H66.6375ZM45.44 18.944H59.328C59.712 18.944 60.16 19.2 60.16 19.648V62.784C60.16 63.168 59.776 63.616 59.328 63.616H45.44C45.056 63.616 44.736 63.232 44.736 62.784V19.648C44.736 19.264 44.992 18.944 45.44 18.944ZM161.408 18.432C174.464 18.432 184.064 28.608 184.064 41.088C184.064 53.568 174.464 64 161.408 64C148.352 64 138.496 53.568 138.496 41.088C138.496 28.608 148.416 18.432 161.408 18.432Z" fill="#1B182A"/>
</svg>
