<svg width="374" height="64" viewBox="0 0 374 64" fill="none" xmlns="http://www.w3.org/2000/svg">
<g clip-path="url(#clip0_6959_11453)">
<path d="M51.904 0H52.864C57.28 0 60.992 3.584 60.992 7.936C60.992 12.288 57.28 16.064 52.864 16.064H51.904C47.488 16.064 43.968 12.48 43.968 7.936C43.968 3.392 47.488 0 51.904 0ZM161.28 33.216C157.312 33.216 153.984 35.968 153.984 40.768V41.6C153.984 46.4 157.312 49.152 161.28 49.152C165.248 49.152 168.256 46.4 168.256 41.6V40.768C168.256 35.968 165.12 33.216 161.28 33.216ZM188.416 18.944H214.784C215.168 18.944 215.616 19.2 215.616 19.648V33.216C215.616 33.6 215.232 33.92 214.784 33.92H208.576C205.568 33.92 203.072 36.416 203.072 39.552V62.912C203.072 63.296 202.688 63.616 202.24 63.616H188.352C187.968 63.616 187.648 63.36 187.648 62.912V19.648C187.648 19.264 187.904 18.944 188.352 18.944H188.416ZM111.168 4.416H125.056C125.44 4.416 125.888 4.672 125.888 5.12V19.008H134.784C135.168 19.008 135.616 19.392 135.616 19.84V33.408C135.616 33.792 135.232 34.24 134.784 34.24H125.888L126.144 48.64H134.784C135.168 48.64 135.616 48.896 135.616 49.344V62.784C135.616 63.168 135.232 63.488 134.784 63.488H126.528C116.096 63.488 110.464 58.56 110.464 48.128V5.056C110.464 4.672 110.72 4.352 111.168 4.352V4.416ZM0.704 18.944H14.72C15.104 18.944 15.424 19.2 15.424 19.648V48.896H17.728C21.824 48.896 23.936 46.72 23.936 42.304V19.648C23.936 19.264 24.192 18.944 24.64 18.944H38.656C39.04 18.944 39.36 19.2 39.36 19.648V46.272C39.36 56 29.632 63.552 16.704 63.552H0.704C0.32 63.552 0 63.296 0 62.848V19.648C0 19.264 0.256 18.944 0.704 18.944ZM66.496 4.096H80.384C80.768 4.096 81.088 4.48 81.088 4.928V32.896L89.024 19.328C89.152 19.2 89.408 19.072 89.728 19.072H105.408C105.984 19.072 106.368 19.776 105.984 20.16L95.68 35.264C103.232 35.264 105.408 41.152 105.408 46.4L105.536 62.72C105.536 63.104 105.152 63.424 104.704 63.424H91.136C90.752 63.424 90.432 63.168 90.432 62.72V51.584C90.432 48.704 88.512 47.04 85.76 47.04C83.008 47.04 81.088 48.704 81.088 51.584V62.72C81.088 63.104 80.832 63.552 80.384 63.552H66.496C66.112 63.552 65.664 63.168 65.664 62.72V4.928C65.664 4.544 66.048 4.096 66.496 4.096ZM45.44 18.944H59.328C59.712 18.944 60.16 19.2 60.16 19.648V62.784C60.16 63.168 59.776 63.616 59.328 63.616H45.44C45.056 63.616 44.736 63.232 44.736 62.784V19.648C44.736 19.264 44.992 18.944 45.44 18.944ZM161.408 18.432C174.464 18.432 184.064 28.608 184.064 41.088C184.064 53.568 174.464 64 161.408 64C148.352 64 138.496 53.568 138.496 41.088C138.496 28.608 148.416 18.432 161.408 18.432ZM254.784 48.512H261.952C262.336 48.512 262.656 48.768 262.656 49.216V62.976C262.656 63.36 262.4 63.68 261.952 63.68H253.056C241.088 63.68 232.896 53.376 232.896 41.28C232.896 29.184 241.664 19.008 253.888 19.008H262.016C262.4 19.008 262.72 19.264 262.72 19.712V33.472C262.72 33.856 262.464 34.176 262.016 34.176H254.848C251.008 34.176 248.384 37.504 248.384 41.472C248.384 45.44 251.008 48.64 254.848 48.64L254.784 48.512ZM328.384 63.616H314.816C314.432 63.616 314.112 63.36 314.112 62.912V19.648C314.112 19.264 314.368 18.944 314.816 18.944H353.664C364.672 18.944 372.608 25.536 372.608 36.544V62.912C372.608 63.296 372.352 63.616 371.904 63.616H358.336C357.952 63.616 357.632 63.36 357.632 62.912V39.68C357.632 35.84 354.752 34.048 352.256 34.048H349.76V62.912C349.76 63.296 349.504 63.616 349.056 63.616H337.536C337.152 63.616 336.832 63.36 336.832 62.912V39.68C336.832 35.84 334.08 34.048 331.584 34.048H328.96V62.912C328.96 63.296 328.704 63.616 328.256 63.616H328.384ZM221.568 46.976H222.528C226.944 46.976 230.656 50.816 230.656 55.488C230.656 60.16 226.944 64 222.528 64H221.568C217.152 64 213.632 60.288 213.632 55.488C213.632 50.688 217.216 46.976 221.568 46.976ZM288 33.216C284.032 33.216 280.704 35.968 280.704 40.768V41.6C280.704 46.4 283.968 49.152 288 49.152C292.032 49.152 294.976 46.4 294.976 41.6V40.768C294.976 35.968 291.84 33.216 288 33.216ZM288.128 18.432C301.184 18.432 310.784 28.608 310.784 41.088C310.784 53.568 301.184 64 288.128 64C275.072 64 265.216 53.568 265.216 41.088C265.216 28.608 275.136 18.432 288.128 18.432Z" fill="white"/>
</g>
<defs>
<clipPath id="clip0_6959_11453">
<rect width="373.12" height="64" fill="white"/>
</clipPath>
</defs>
</svg>
