<svg width="217" height="64" viewBox="0 0 217 64" fill="none" xmlns="http://www.w3.org/2000/svg">
<g clip-path="url(#clip0_6959_11523)">
<path d="M51.9142 0H52.8755C57.2704 0 60.9786 3.57082 60.9786 7.9657C60.9786 12.4979 57.2704 16.0687 52.8755 16.0687H51.9142C47.5193 16.0687 43.9485 12.4979 43.9485 7.9657C43.9485 3.57082 47.5193 0 51.9142 0ZM161.301 33.236C157.318 33.236 154.022 35.9828 154.022 40.7897V41.6138C154.022 46.4206 157.318 49.1674 161.301 49.1674C165.146 49.1674 168.305 46.4206 168.305 41.6138V40.7897C168.305 35.9828 165.146 33.236 161.301 33.236ZM188.748 18.9528H215.117C215.529 18.9528 215.941 19.2275 215.941 19.6395V33.236C215.941 33.6481 215.529 33.9228 215.117 33.9228H208.937C205.916 33.9228 203.443 36.3948 203.443 39.5537V62.9013C203.443 63.3133 203.031 63.588 202.619 63.588H188.748C188.336 63.588 188.061 63.3133 188.061 62.9013V19.6395C188.061 19.2275 188.336 18.9528 188.748 18.9528ZM111.198 4.09441H125.069C125.481 4.09441 125.893 4.36909 125.893 4.78111V18.9528H134.82C135.232 18.9528 135.644 19.3648 135.644 19.7768V33.3734C135.644 33.7854 135.232 34.1974 134.82 34.1974H125.893V48.618H134.82C135.232 48.618 135.644 48.8927 135.644 49.3047V62.764C135.644 63.1759 135.232 63.4506 134.82 63.4506H126.58C116.142 63.4506 110.511 58.5064 110.511 48.0687V4.78111C110.511 4.36909 110.786 4.09441 111.198 4.09441ZM0.686694 18.9528H14.6953C15.1073 18.9528 15.382 19.2275 15.382 19.6395V48.8927H17.7633C21.8835 48.8927 23.897 46.6953 23.897 42.3004V19.6395C23.897 19.2275 24.1716 18.9528 24.5837 18.9528H38.5923C39.0043 18.9528 39.279 19.2275 39.279 19.6395V46.2833C39.279 56.0343 29.5279 63.588 16.618 63.588H0.686694C0.274678 63.588 0 63.3133 0 62.9013V19.6395C0 19.2275 0.274678 18.9528 0.686694 18.9528ZM66.4723 4.12017H80.343C80.7552 4.12017 81.0298 4.53219 81.0298 4.9442V32.9356L89.5968 19.3648C89.7338 19.2275 90.0083 19.0901 90.2835 19.0901H105.94C106.49 19.0901 106.901 19.7768 106.489 20.1889L95.5878 35.2961C103.801 35.2961 105.339 41.2017 105.339 46.4206L105.476 62.764C105.476 63.1759 105.064 63.4506 104.652 63.4506H91.056C90.6438 63.4506 90.3693 63.1759 90.3693 62.764V51.6395C90.3693 48.7554 88.4461 47.1073 85.6998 47.1073C82.953 47.1073 81.0298 48.7554 81.0298 51.6395V62.764C81.0298 63.1759 80.7552 63.588 80.343 63.588H66.4723C66.0602 63.588 65.648 63.1759 65.648 62.764V4.9442C65.648 4.53219 66.0602 4.12017 66.4723 4.12017ZM45.4592 18.9528H59.3305C59.7425 18.9528 60.1545 19.2275 60.1545 19.6395V62.764C60.1545 63.1759 59.7425 63.588 59.3305 63.588H45.4592C45.0472 63.588 44.7725 63.1759 44.7725 62.764V19.6395C44.7725 19.2275 45.0472 18.9528 45.4592 18.9528ZM161.438 18.4035C174.486 18.4035 184.099 28.5665 184.099 41.0644C184.099 53.5622 174.486 64 161.438 64C148.116 64 138.502 53.5622 138.502 41.0644C138.502 28.5665 148.391 18.4035 161.438 18.4035Z" fill="white"/>
</g>
<defs>
<clipPath id="clip0_6959_11523">
<rect width="216.32" height="64" fill="white"/>
</clipPath>
</defs>
</svg>
