<svg preserveAspectRatio="xMidYMid meet" width="100%" height="100%" overflow="visible" style="display: block;" viewBox="0 0 61.7377 18.6339" fill="none" xmlns="http://www.w3.org/2000/svg">
<g id="Amazon" clip-path="url(#clip0_0_12)">
<path id="Vector" d="M38.2943 14.5581C34.7109 17.1993 29.517 18.6086 25.0451 18.6086C18.7749 18.6086 13.1301 16.2895 8.85948 12.4322C8.52396 12.129 8.82458 11.7155 9.22722 11.9517C13.836 14.6333 19.5345 16.2465 25.4209 16.2465C29.3908 16.2465 33.758 15.4251 37.7735 13.7206C38.3802 13.4629 38.8875 14.1179 38.2943 14.5581Z" fill="var(--fill-0, #F5F3F0)"/>
<path id="Vector_2" d="M39.7844 12.8536C39.3281 12.2685 36.7566 12.5772 35.6024 12.714C35.2508 12.757 35.1971 12.451 35.5139 12.2309C37.5619 10.7895 40.9225 11.2055 41.3143 11.6887C41.7063 12.1746 41.2124 15.5432 39.2879 17.1511C38.9926 17.398 38.7107 17.2665 38.8423 16.9389C39.2744 15.8599 40.2434 13.4415 39.7844 12.8536Z" fill="var(--fill-0, #F5F3F0)"/>
<path id="Vector_3" d="M35.6811 2.0552V0.654052C35.6811 0.442001 35.8421 0.299739 36.0354 0.299739H42.3084C42.5097 0.299739 42.6708 0.444686 42.6708 0.654052V1.85388C42.6681 2.0552 42.499 2.31825 42.1984 2.73429L38.9478 7.37527C40.1557 7.34574 41.4307 7.52558 42.5258 8.14294C42.7727 8.28251 42.8399 8.48651 42.8586 8.68783V10.1829C42.8586 10.3869 42.6332 10.6258 42.397 10.5023C40.467 9.4904 37.9036 9.38035 35.7697 10.5131C35.5523 10.6312 35.3241 10.395 35.3241 10.191V8.77104C35.3241 8.54289 35.3268 8.15367 35.555 7.80742L39.3209 2.40683H36.0435C35.8421 2.40683 35.6811 2.26457 35.6811 2.0552Z" fill="var(--fill-0, #F5F3F0)"/>
<path id="Vector_4" d="M12.7983 10.798H10.8898C10.7073 10.7845 10.5623 10.6477 10.5489 10.4732V0.678581C10.5489 0.482636 10.7126 0.326951 10.9166 0.326951H12.6963C12.8814 0.334999 13.029 0.477266 13.0425 0.654422V1.93478H13.0774C13.5418 0.697369 14.4141 0.120268 15.5898 0.120268C16.7843 0.120268 17.5305 0.697369 18.0673 1.93478C18.529 0.697369 19.5785 0.120268 20.7031 0.120268C21.5031 0.120268 22.3781 0.450423 22.9123 1.19126C23.5162 2.01531 23.3928 3.21246 23.3928 4.26198L23.39 10.4437C23.39 10.6396 23.2263 10.798 23.0223 10.798H21.1166C20.9259 10.7845 20.773 10.6316 20.773 10.4437V5.25244C20.773 4.83908 20.8105 3.80834 20.7193 3.41646C20.577 2.75882 20.1503 2.57362 19.5973 2.57362C19.1356 2.57362 18.6525 2.8823 18.4565 3.37619C18.2606 3.87008 18.2794 4.69681 18.2794 5.25244V10.4437C18.2794 10.6396 18.1156 10.798 17.9116 10.798H16.0059C15.8125 10.7845 15.6622 10.6316 15.6622 10.4437L15.6596 5.25244C15.6596 4.15997 15.8394 2.55214 14.4839 2.55214C13.1123 2.55214 13.1659 4.11971 13.1659 5.25244V10.4437C13.1659 10.6396 13.0022 10.798 12.7983 10.798Z" fill="var(--fill-0, #F5F3F0)"/>
<path id="Vector_5" d="M48.0721 0.120117C50.9039 0.120117 52.4366 2.55199 52.4366 5.64418C52.4366 8.63169 50.7428 11.0019 48.0721 11.0019C45.2913 11.0019 43.7773 8.56995 43.7773 5.5395C43.7773 2.49025 45.31 0.120117 48.0721 0.120117ZM48.0882 2.11984C46.6817 2.11984 46.5931 4.03635 46.5931 5.23082C46.5931 6.42797 46.5743 8.98331 48.0721 8.98331C49.5511 8.98331 49.6208 6.92186 49.6208 5.66566C49.6208 4.83892 49.586 3.85114 49.3363 3.06736C49.1216 2.38557 48.6949 2.11984 48.0882 2.11984Z" fill="var(--fill-0, #F5F3F0)"/>
<path id="Vector_6" d="M56.1061 10.7978H54.2056C54.0151 10.7844 53.862 10.6314 53.862 10.4436L53.8594 0.646218C53.8756 0.466377 54.0338 0.3268 54.2271 0.3268H55.996C56.1624 0.334848 56.2993 0.447589 56.3369 0.600588V2.09837H56.3718C56.9059 0.758955 57.6549 0.120117 58.9727 0.120117C59.829 0.120117 60.6638 0.428799 61.2006 1.27432C61.7 2.0581 61.7 3.37604 61.7 4.32355V10.4891C61.6784 10.6609 61.5201 10.7978 61.3322 10.7978H59.4183C59.2439 10.7844 59.0989 10.6556 59.0801 10.4891V5.16908C59.0801 4.09808 59.2036 2.53052 57.8856 2.53052C57.4213 2.53052 56.9945 2.84189 56.7824 3.3143C56.5141 3.91288 56.4792 4.50877 56.4792 5.16908V10.4436C56.4765 10.6394 56.31 10.7978 56.1061 10.7978Z" fill="var(--fill-0, #F5F3F0)"/>
<path id="Vector_7" d="M5.66244 6.11948V5.70611C4.28276 5.70611 2.82525 6.00138 2.82525 7.62799C2.82525 8.45204 3.25204 9.01035 3.98482 9.01035C4.52166 9.01035 5.00212 8.6802 5.30545 8.14336C5.68123 7.48305 5.66244 6.863 5.66244 6.11948ZM7.58701 10.7712C7.46085 10.8839 7.27832 10.892 7.13606 10.8168C6.50259 10.2907 6.38986 10.0465 6.04091 9.5445C4.99408 10.6128 4.25324 10.9322 2.89504 10.9322C1.28989 10.9322 0.0390625 9.94176 0.0390625 7.95815C0.0390625 6.40938 0.879213 5.35448 2.07368 4.83912C3.10978 4.3828 4.55656 4.30228 5.66244 4.17612V3.92918C5.66244 3.47555 5.69733 2.93872 5.4316 2.54682C5.19808 2.19519 4.7525 2.05025 4.3606 2.05025C3.6332 2.05025 2.98362 2.42335 2.82525 3.1964C2.79304 3.36819 2.66688 3.53729 2.49509 3.54534L0.643005 3.34671C0.487321 3.31181 0.315533 3.18566 0.35848 2.94676C0.785267 0.702784 2.81183 0.0263672 4.62634 0.0263672C5.55507 0.0263672 6.76832 0.273312 7.50111 0.97657C8.42984 1.84356 8.34126 3.00045 8.34126 4.25934V7.23342C8.34126 8.12725 8.71168 8.51915 9.06062 9.0023C9.1841 9.17409 9.21094 9.38077 9.05526 9.50961C8.66604 9.8344 7.97353 10.4383 7.59237 10.7766L7.58701 10.7712Z" fill="var(--fill-0, #F5F3F0)"/>
<path id="Vector_8" d="M30.4026 6.11948V5.70611C29.023 5.70611 27.5655 6.00138 27.5655 7.62799C27.5655 8.45204 27.9923 9.01035 28.7251 9.01035C29.2619 9.01035 29.7424 8.6802 30.0456 8.14336C30.4215 7.48305 30.4026 6.863 30.4026 6.11948ZM32.3273 10.7712C32.2011 10.8839 32.0186 10.892 31.8763 10.8168C31.2428 10.2907 31.1301 10.0465 30.7812 9.5445C29.7343 10.6128 28.9934 10.9322 27.6353 10.9322C26.0301 10.9322 24.7793 9.94176 24.7793 7.95815C24.7793 6.40938 25.6195 5.35448 26.8139 4.83912C27.85 4.3828 29.2968 4.30228 30.4026 4.17612V3.92918C30.4026 3.47555 30.4376 2.93872 30.1719 2.54682C29.9383 2.19519 29.4928 2.05025 29.1008 2.05025C28.3734 2.05025 27.7239 2.42335 27.5655 3.1964C27.5332 3.36819 27.4071 3.53729 27.2353 3.54534L25.3833 3.34671C25.2275 3.31181 25.0557 3.18566 25.0987 2.94676C25.5255 0.702784 27.5521 0.0263672 29.3666 0.0263672C30.2953 0.0263672 31.5086 0.273312 32.2414 0.97657C33.1701 1.84356 33.0815 3.00045 33.0815 4.25934V7.23342C33.0815 8.12725 33.452 8.51915 33.8009 9.0023C33.9244 9.17409 33.9512 9.38077 33.7955 9.50961C33.4063 9.8344 32.7138 10.4383 32.3326 10.7766L32.3273 10.7712Z" fill="var(--fill-0, #F5F3F0)"/>
</g>
<defs>
<clipPath id="clip0_0_12">
<rect width="61.7377" height="18.6339" fill="white"/>
</clipPath>
</defs>
</svg>
