<svg preserveAspectRatio="xMidYMid meet" width="100%" height="100%" overflow="visible" style="display: block;" viewBox="0 0 58.0334 18.9421" fill="none" xmlns="http://www.w3.org/2000/svg">
<g id="Google" clip-path="url(#clip0_0_39)">
<path id="Vector" d="M7.14711 -0.000232869H7.66318C9.45482 0.0387157 11.2172 0.759265 12.4831 2.03483C12.0157 2.51195 11.5386 2.9696 11.0809 3.44672C10.3701 2.80407 9.51324 2.30747 8.57847 2.1322C7.1958 1.84009 5.70602 2.10299 4.54729 2.8917C3.28147 3.71936 2.4246 5.12151 2.23959 6.62103C2.03511 8.10107 2.45381 9.65902 3.41779 10.808C4.34281 11.9278 5.7547 12.6288 7.21527 12.6775C8.57847 12.7554 10.0001 12.3367 10.9933 11.3825C11.7723 10.7106 12.1325 9.68823 12.2494 8.69504C10.633 8.69504 9.01665 8.70478 7.40028 8.69504V6.68919H14.2065C14.5571 8.8411 14.0508 11.2656 12.4149 12.8041C11.3243 13.8947 9.81509 14.5373 8.27662 14.6639C6.78684 14.81 5.24837 14.5276 3.92412 13.807C2.33696 12.9599 1.07113 11.5285 0.447955 9.84402C-0.136274 8.29582 -0.146011 6.54313 0.399269 4.98519C0.895864 3.56356 1.8501 2.30747 3.07699 1.43113C4.25518 0.564522 5.68654 0.0874015 7.14711 -0.000232869Z" fill="var(--fill-0, #F5F3F0)"/>
<path id="Vector_2" d="M46.1934 0.507812H48.2771V14.4125C47.5858 14.4125 46.8847 14.4222 46.1934 14.4027C46.2031 9.77758 46.1934 5.14269 46.1934 0.507812V0.507812Z" fill="var(--fill-0, #F5F3F0)"/>
<path id="Vector_3" d="M18.842 5.32759C20.1273 5.08416 21.5197 5.3568 22.5811 6.12603C23.5451 6.80763 24.2169 7.87872 24.4214 9.04718C24.6843 10.4006 24.3532 11.8807 23.4769 12.9518C22.5324 14.1494 20.9842 14.7921 19.4749 14.6947C18.0923 14.6168 16.7485 13.9255 15.9306 12.796C15.0056 11.5496 14.7816 9.83589 15.288 8.37531C15.7943 6.80763 17.2257 5.60996 18.842 5.32759V5.32759ZM19.1341 7.17764C18.6083 7.31396 18.1215 7.61582 17.7709 8.04425C16.8264 9.17376 16.8849 11.0141 17.9267 12.0657C18.5207 12.6694 19.4165 12.9518 20.2442 12.7862C21.0134 12.6499 21.6853 12.1339 22.0553 11.4523C22.6979 10.2935 22.5129 8.69664 21.5295 7.79108C20.8966 7.20686 19.9715 6.96343 19.1341 7.17764Z" fill="var(--fill-0, #F5F3F0)"/>
<path id="Vector_4" d="M29.1651 5.32733C30.6354 5.04495 32.2421 5.45391 33.3424 6.48605C35.134 8.09268 35.3287 11.1015 33.8 12.9515C32.875 14.12 31.3755 14.7626 29.8954 14.6945C28.4835 14.6555 27.0911 13.9544 26.2537 12.7957C25.3092 11.5202 25.1047 9.76747 25.6403 8.27768C26.1758 6.75869 27.578 5.59997 29.1651 5.32733V5.32733ZM29.4572 7.17738C28.9314 7.3137 28.4446 7.61556 28.094 8.03425C27.1593 9.14429 27.1982 10.9554 28.2012 12.0167C28.7951 12.6497 29.7201 12.9613 30.577 12.786C31.3365 12.6399 32.0181 12.1336 32.3881 11.452C33.021 10.2835 32.836 8.68664 31.8428 7.78109C31.2099 7.19686 30.2849 6.96317 29.4572 7.17738Z" fill="var(--fill-0, #F5F3F0)"/>
<path id="Vector_5" d="M37.9151 5.89238C39.0349 5.19131 40.5246 4.99657 41.732 5.60027C42.1118 5.7658 42.4234 6.04818 42.7252 6.33056C42.735 6.06765 42.7252 5.79501 42.735 5.52237C43.3874 5.53211 44.0397 5.52237 44.7019 5.53211V14.1203C44.6921 15.4153 44.3611 16.7883 43.4263 17.7328C42.4039 18.7746 40.8362 19.096 39.4243 18.8817C37.9151 18.6578 36.6006 17.5575 36.0163 16.1651C36.6006 15.8827 37.214 15.6587 37.8177 15.3958C38.1585 16.1943 38.8498 16.8759 39.7165 17.0317C40.5831 17.1875 41.586 16.9733 42.1507 16.2527C42.7544 15.5127 42.7544 14.5 42.7252 13.5945C42.2773 14.0326 41.7613 14.4221 41.1381 14.5682C39.7846 14.9479 38.2948 14.4806 37.253 13.5653C36.2013 12.65 35.5782 11.2381 35.6366 9.83593C35.6658 8.24877 36.5616 6.72004 37.9151 5.89238V5.89238ZM39.9307 7.13874C39.3367 7.23611 38.7817 7.56717 38.4019 8.02482C37.4866 9.11538 37.4866 10.8583 38.4117 11.9294C38.9375 12.5623 39.7846 12.9129 40.6025 12.8252C41.3718 12.7473 42.0826 12.2605 42.4623 11.5886C43.105 10.4494 42.9979 8.90116 42.1313 7.90797C41.5957 7.29453 40.7389 6.99268 39.9307 7.13874V7.13874Z" fill="var(--fill-0, #F5F3F0)"/>
<path id="Vector_6" d="M50.7791 6.3892C51.9475 5.29864 53.7489 4.92863 55.2484 5.50312C56.6701 6.03866 57.5756 7.39212 58.0333 8.78454C55.9203 9.66088 53.8171 10.5275 51.7041 11.4038C51.9962 11.9588 52.4441 12.4652 53.0478 12.6697C53.895 12.9715 54.9076 12.8644 55.6184 12.2996C55.9008 12.0854 56.1248 11.8031 56.339 11.5304C56.8745 11.8907 57.4101 12.2412 57.9456 12.6015C57.1861 13.7407 55.9106 14.5392 54.5376 14.6658C53.0186 14.8508 51.4023 14.2665 50.4188 13.0786C48.8024 11.2091 48.9582 8.07372 50.7791 6.3892V6.3892ZM51.821 8.19057C51.4899 8.66769 51.3536 9.25192 51.3633 9.82641C52.7752 9.24218 54.1871 8.65795 55.599 8.06399C55.3653 7.51871 54.8005 7.18764 54.226 7.10001C53.301 6.93448 52.337 7.43107 51.821 8.19057V8.19057Z" fill="var(--fill-0, #F5F3F0)"/>
</g>
<defs>
<clipPath id="clip0_0_39">
<rect width="58.0334" height="18.9421" fill="white"/>
</clipPath>
</defs>
</svg>
