<svg preserveAspectRatio="xMidYMid meet" width="100%" height="100%" overflow="visible" style="display: block;" viewBox="0 0 62.355 14.817" fill="none" xmlns="http://www.w3.org/2000/svg">
<g id="metaai-text 2">
<path id="Vector" fill-rule="evenodd" clip-rule="evenodd" d="M61.1352 1.2334H59.1411C59.1346 1.2334 59.1283 1.236 59.1237 1.24063C59.119 1.24526 59.1164 1.25154 59.1164 1.25809V13.3383C59.1164 13.3519 59.1281 13.363 59.1411 13.363H61.1352C61.1418 13.363 61.1481 13.3604 61.1527 13.3558C61.1573 13.3511 61.1599 13.3449 61.1599 13.3383V1.25809C61.1599 1.25154 61.1573 1.24526 61.1527 1.24063C61.1481 1.236 61.1418 1.2334 61.1352 1.2334ZM12.3205 4.11037C12.3196 4.10867 12.318 4.1074 12.3162 4.10682C12.3144 4.10624 12.3124 4.10641 12.3106 4.10729C12.3099 4.10797 12.3092 4.10881 12.3088 4.10976L8.74034 10.4718C8.73482 10.4819 8.72669 10.4903 8.71681 10.4962C8.70693 10.502 8.69565 10.5051 8.68416 10.5052H6.8771C6.86521 10.5052 6.85355 10.5019 6.84333 10.4959C6.83312 10.4898 6.82474 10.481 6.81907 10.4706L3.24878 4.10296C3.24738 4.1007 3.24529 4.09896 3.24282 4.09798C3.24035 4.097 3.23763 4.09685 3.23506 4.09754C3.23249 4.09824 3.23022 4.09974 3.22858 4.10183C3.22693 4.10392 3.22601 4.10648 3.22594 4.10914V13.3321C3.22594 13.3403 3.22269 13.3482 3.2169 13.354C3.21111 13.3597 3.20326 13.363 3.19507 13.363H1.26083C1.25705 13.363 1.2533 13.3622 1.24982 13.3608C1.24633 13.3593 1.24317 13.3572 1.24053 13.3545C1.23788 13.3518 1.2358 13.3486 1.23441 13.345C1.23302 13.3415 1.23235 13.3378 1.23243 13.334V1.26982C1.23235 1.26507 1.23321 1.26035 1.23498 1.25593C1.23674 1.25151 1.23936 1.24749 1.2427 1.2441C1.24603 1.24071 1.25 1.23802 1.25439 1.23618C1.25877 1.23434 1.26348 1.2334 1.26824 1.2334H3.63711C3.64718 1.23343 3.65705 1.23613 3.66573 1.24122C3.67441 1.24632 3.68158 1.25364 3.6865 1.26242L7.79144 8.58203C7.79293 8.58473 7.79512 8.58699 7.79778 8.58855C7.80044 8.59012 7.80348 8.59095 7.80656 8.59095C7.80965 8.59095 7.81268 8.59012 7.81534 8.58855C7.818 8.58699 7.82019 8.58473 7.82169 8.58203L11.9297 1.25624C11.9337 1.24932 11.9395 1.24357 11.9464 1.23957C11.9531 1.23557 11.9608 1.23344 11.9686 1.2334H14.3048C14.3109 1.2334 14.3171 1.23587 14.3214 1.24019C14.3259 1.24485 14.3283 1.25105 14.3282 1.25748V13.3253C14.3282 13.3328 14.3259 13.34 14.3217 13.3462C14.3176 13.3523 14.3116 13.3571 14.3048 13.3599C14.3002 13.3616 14.2954 13.3625 14.2906 13.3624H12.3532C12.3506 13.3624 12.3479 13.3618 12.3455 13.3607C12.3431 13.3597 12.3409 13.3581 12.339 13.3562C12.3353 13.3527 12.3331 13.3478 12.3329 13.3426C12.3341 11.2435 12.3341 8.18135 12.3335 4.15853C12.3332 4.14134 12.3289 4.12446 12.3211 4.10914L12.3205 4.11037ZM45.5792 13.3636C45.5759 13.3636 45.5726 13.3628 45.5696 13.3613C45.5666 13.3598 45.564 13.3576 45.5619 13.355C45.56 13.3523 45.5587 13.3493 45.5582 13.3461C45.5577 13.3429 45.5579 13.3396 45.5588 13.3364C45.6125 13.1451 45.7218 12.7969 45.8873 12.2925C47.1243 8.51207 48.6277 4.82409 50.3861 1.25624C50.3894 1.24958 50.3945 1.24397 50.4008 1.24005C50.4072 1.23612 50.4145 1.23404 50.4219 1.23402H52.7334C52.7478 1.23397 52.7619 1.23801 52.7742 1.24565C52.7864 1.2533 52.7962 1.26425 52.8025 1.27723C54.715 5.16204 56.3221 9.18983 57.6094 13.3241C57.6115 13.331 57.6111 13.3385 57.6083 13.3451C57.6055 13.3518 57.6004 13.3572 57.594 13.3605C57.5895 13.3626 57.5847 13.3637 57.5798 13.3636H55.4412C55.4345 13.3636 55.428 13.3614 55.4227 13.3574C55.4171 13.3535 55.413 13.3478 55.4109 13.3414C55.1185 12.313 54.7959 11.2935 54.4435 10.2841C54.4406 10.2763 54.4354 10.2696 54.4285 10.2649C54.4217 10.2601 54.4135 10.2576 54.4052 10.2576H48.7235C48.7126 10.2576 48.7021 10.261 48.6932 10.2673C48.6844 10.2736 48.6777 10.2825 48.6741 10.2928C48.3304 11.2999 48.0111 12.3151 47.7166 13.3377C47.7144 13.3452 47.7099 13.3518 47.7036 13.3565C47.6974 13.3611 47.6898 13.3636 47.682 13.3636H45.5792ZM51.5616 8.53758C52.7834 8.53758 53.5261 8.53882 53.7903 8.54005C53.7932 8.53998 53.7961 8.53922 53.7987 8.53782C53.8013 8.53642 53.8035 8.53444 53.8051 8.53202C53.8068 8.52964 53.8079 8.52688 53.8084 8.52399C53.8088 8.52109 53.8085 8.51813 53.8076 8.51536C53.1282 6.70389 52.3853 4.91692 51.5801 3.15776C51.577 3.15159 51.5715 3.1485 51.5634 3.1485C51.5548 3.1485 51.5492 3.15159 51.5461 3.15776C50.7402 4.91643 49.9967 6.703 49.3168 8.51412C49.3157 8.51686 49.3153 8.51983 49.3156 8.52276C49.3162 8.52585 49.3174 8.52894 49.3193 8.53079C49.3209 8.53324 49.3231 8.53525 49.3257 8.53665C49.3283 8.53805 49.3311 8.5388 49.3341 8.53882C49.5983 8.53758 50.3404 8.53758 51.5616 8.53758ZM31.8568 11.7584L31.8667 11.7591C31.8714 11.7604 31.8756 11.7632 31.8786 11.7671C31.8816 11.771 31.8832 11.7757 31.8833 11.7807V13.3241C31.8833 13.3301 31.8813 13.336 31.8776 13.3408C31.8739 13.3456 31.8688 13.349 31.8629 13.3506C31.1053 13.5641 30.3112 13.6155 29.5324 13.5013C29.1442 13.4477 28.7714 13.314 28.4377 13.1086C27.4543 12.4974 27.1943 11.3071 27.1956 10.2224C27.1968 9.33832 27.1974 7.91959 27.1968 5.96682C27.1968 5.96336 27.1961 5.95993 27.1947 5.95675C27.1933 5.95357 27.1913 5.9507 27.1888 5.9483C27.1839 5.94335 27.1772 5.94047 27.1703 5.94028H25.4027C25.3984 5.94023 25.3942 5.93934 25.3903 5.93764C25.3864 5.93595 25.3828 5.93348 25.3799 5.9304C25.3739 5.92428 25.3706 5.91609 25.3706 5.90756V4.35424C25.3706 4.34933 25.3721 4.34453 25.3748 4.34046C25.3776 4.33639 25.3815 4.33324 25.3861 4.33139C25.389 4.33019 25.3921 4.32956 25.3953 4.32954H27.174C27.1802 4.32954 27.1862 4.32707 27.1906 4.32267C27.195 4.31827 27.1974 4.3123 27.1974 4.30608V1.69458C27.1974 1.68868 27.1998 1.68303 27.2039 1.67886C27.2081 1.67469 27.2138 1.67235 27.2197 1.67235H29.0903C29.0977 1.67235 29.1045 1.67544 29.1088 1.68038C29.1138 1.68526 29.1167 1.69191 29.1169 1.6989V4.31287C29.1169 4.31729 29.1186 4.32153 29.1217 4.32466C29.1249 4.32779 29.1291 4.32954 29.1335 4.32954H31.8586C31.8648 4.32954 31.871 4.33201 31.8759 4.33695C31.8783 4.3393 31.8801 4.34209 31.8814 4.34517C31.8827 4.34824 31.8833 4.35153 31.8833 4.35485V5.91929C31.8833 5.92201 31.8828 5.92472 31.8817 5.92723C31.8807 5.92974 31.8791 5.93202 31.8771 5.93392C31.8752 5.93582 31.8729 5.9373 31.8703 5.93829C31.8678 5.93928 31.8651 5.93974 31.8623 5.93966H29.1397C29.1335 5.93966 29.1275 5.94213 29.1231 5.94653C29.1187 5.95093 29.1162 5.9569 29.1162 5.96312C29.1175 7.21393 29.1181 8.58203 29.1175 10.0681C29.1175 10.3453 29.1465 10.6095 29.2051 10.862C29.3552 11.5041 29.7756 11.8226 30.4337 11.8572C30.9103 11.8822 31.3882 11.8491 31.8568 11.7584ZM18.0708 9.56798C18.1214 9.95446 18.2412 10.3095 18.4313 10.633C18.8468 11.3399 19.4549 11.7578 20.2544 11.8862C20.5804 11.9375 20.949 11.9418 21.3608 11.8986C22.1955 11.8109 22.8844 11.4788 23.4938 10.9108C23.5003 10.9045 23.5087 10.9005 23.5176 10.8991C23.5266 10.8978 23.5357 10.8993 23.5438 10.9034C23.5493 10.906 23.5541 10.9098 23.558 10.9145L24.5643 12.1307C24.57 12.1374 24.5728 12.146 24.5722 12.1548C24.5716 12.1635 24.5677 12.1717 24.5612 12.1776C23.8526 12.8183 22.9847 13.2565 22.0485 13.4463C20.9916 13.6667 19.7827 13.6334 18.798 13.2198C17.2435 12.5678 16.2637 11.133 16.1174 9.45994C16.0785 9.03057 16.0814 8.59844 16.126 8.16962C16.2402 7.10033 16.6847 6.0798 17.4472 5.33278C18.4103 4.38819 19.7025 4.00974 21.036 4.13136C22.1917 4.23632 23.1425 4.74257 23.8266 5.65505C24.66 6.76756 24.8421 8.17395 24.7897 9.53526C24.7897 9.54017 24.7877 9.54488 24.7842 9.54836C24.7808 9.55183 24.7761 9.55378 24.7711 9.55378H18.0825L18.0775 9.5544C18.0752 9.55555 18.0732 9.55744 18.072 9.55977C18.0708 9.5621 18.0704 9.56476 18.0708 9.56736V9.56798ZM18.0955 8.12023H22.8616C22.865 8.12007 22.8684 8.11923 22.8715 8.11776C22.8747 8.11631 22.8777 8.11421 22.8801 8.11159C22.8824 8.10901 22.8842 8.10598 22.8852 8.10268C22.8863 8.09938 22.8867 8.0959 22.8863 8.09245C22.785 6.92191 22.1454 5.93966 20.9156 5.78346C19.926 5.65814 19.0444 6.02609 18.5091 6.87869C18.2784 7.24641 18.1282 7.6588 18.0683 8.08875C18.0679 8.0926 18.0682 8.09649 18.0694 8.10018C18.0706 8.10388 18.0725 8.10729 18.075 8.11019C18.0776 8.1131 18.0807 8.11544 18.0843 8.11706C18.0878 8.11868 18.0916 8.12017 18.0955 8.12023ZM39.971 5.46058C39.9723 5.46261 39.9742 5.46414 39.9765 5.4649C39.9787 5.46561 39.9811 5.46561 39.9833 5.4649C39.9856 5.46405 39.9876 5.46253 39.989 5.46056C39.9904 5.45858 39.9912 5.45622 39.9913 5.45378V4.34745C39.9913 4.34559 39.9913 4.34312 39.9926 4.34127C39.9938 4.33802 39.996 4.33522 39.9989 4.33323C40.0017 4.33125 40.0051 4.33018 40.0086 4.33016H41.8441C41.8502 4.33016 41.8564 4.33263 41.8614 4.33757C41.8635 4.33976 41.8653 4.34236 41.8664 4.34523C41.8676 4.34809 41.8682 4.35115 41.8682 4.35424V13.3346C41.8682 13.342 41.8652 13.3492 41.8601 13.3545C41.8549 13.3598 41.8478 13.3628 41.8404 13.363H40.0111C40.0084 13.363 40.0058 13.3624 40.0034 13.3614C40.0009 13.3603 39.9987 13.3588 39.9969 13.3568C39.9929 13.3529 39.9907 13.3476 39.9907 13.342V12.135C39.9906 12.133 39.99 12.131 39.9891 12.1292C39.9881 12.1274 39.9867 12.1259 39.985 12.1247C39.9834 12.1235 39.9815 12.1227 39.9795 12.1224C39.9775 12.122 39.9754 12.1221 39.9734 12.1227C39.9705 12.1235 39.9679 12.1252 39.966 12.1276C39.3141 13.0352 38.3114 13.5229 37.1958 13.5723C35.7709 13.6365 34.6294 13.1093 33.7694 11.9906C33.3551 11.451 33.0563 10.7527 32.9193 10.0588C32.6211 8.54005 32.852 6.87807 33.8244 5.6427C34.5343 4.74133 35.5561 4.20792 36.7057 4.12396C37.9886 4.03011 39.1653 4.43264 39.971 5.46058ZM39.9524 10.1712V7.52694C39.9524 7.50125 39.9471 7.47584 39.937 7.45223C39.5468 6.53419 38.7609 5.95201 37.7774 5.8452C36.3821 5.69271 35.2196 6.45023 34.885 7.81278C34.4732 9.49081 35.04 11.7208 37.1347 11.8504C38.346 11.9257 39.4771 11.367 39.9456 10.2026C39.9497 10.1926 39.9524 10.182 39.9524 10.1712Z" fill="var(--fill-0, #F5F3F0)"/>
</g>
</svg>
