<svg preserveAspectRatio="xMidYMid meet" width="100%" height="100%" overflow="visible" style="display: block;" viewBox="0 0 79.0242 17.6981" fill="none" xmlns="http://www.w3.org/2000/svg">
<g id="vectorizer_Vectorizer_2026-02-04_13-26-20 1">
<g id="Group">
<path id="Vector" d="M24.5177 5.70118C26.5942 5.70145 27.7401 5.70351 27.9552 5.70735C28.3734 5.71476 28.8068 5.51143 29.1389 5.25831C29.6378 4.87856 29.9772 4.38548 30.1572 3.77908C30.1585 3.77472 30.1587 3.77013 30.1579 3.76567C30.1571 3.7612 30.1553 3.75699 30.1526 3.75335C30.1498 3.74972 30.1463 3.74677 30.1423 3.74473C30.1382 3.74269 30.1337 3.74163 30.1292 3.74162C27.7999 3.7419 25.9294 3.74203 24.5177 3.74203C23.1059 3.74203 21.2354 3.74176 18.9061 3.74121C18.9016 3.74122 18.8971 3.74228 18.8931 3.74432C18.889 3.74635 18.8855 3.74931 18.8828 3.75294C18.8801 3.75657 18.8782 3.76079 18.8774 3.76526C18.8766 3.76972 18.8769 3.77431 18.8781 3.77866C19.0581 4.38534 19.3976 4.87842 19.8964 5.2579C20.2281 5.51102 20.6619 5.71435 21.0797 5.70694C21.2951 5.7031 22.4411 5.70118 24.5177 5.70118Z" stroke="var(--stroke-0, white)" stroke-width="0.0823169"/>
<path id="Vector_2" d="M71.7585 5.713C73.8362 5.71327 74.9828 5.71533 75.1982 5.71917C75.6163 5.72658 76.0501 5.52326 76.3823 5.27013C76.8814 4.89038 77.2211 4.39716 77.4014 3.79049C77.4027 3.78611 77.403 3.78147 77.4023 3.77696C77.4015 3.77244 77.3997 3.76816 77.3969 3.76448C77.3942 3.76079 77.3907 3.7578 77.3866 3.75574C77.3825 3.75368 77.378 3.75261 77.3734 3.75262C75.0427 3.7529 73.1712 3.7529 71.7589 3.75262C70.3467 3.75235 68.4752 3.7518 66.1445 3.75098C66.1399 3.75097 66.1354 3.75203 66.1313 3.75409C66.1272 3.75615 66.1237 3.75914 66.121 3.76283C66.1182 3.76651 66.1164 3.77079 66.1156 3.77531C66.1149 3.77983 66.1152 3.78446 66.1165 3.78884C66.2965 4.39552 66.6361 4.88873 67.1352 5.26849C67.4674 5.52202 67.9012 5.72535 68.3193 5.71794C68.5347 5.71437 69.6811 5.71272 71.7585 5.713Z" stroke="var(--stroke-0, white)" stroke-width="0.0823169"/>
<path id="Vector_3" d="M7.97575 13.5625C8.56624 13.5625 8.8774 13.5624 8.90923 13.5621C8.91538 13.562 8.92124 13.5594 8.92555 13.5549C8.92986 13.5505 8.93228 13.5445 8.93227 13.5382V5.79548C8.93227 5.78882 8.93432 5.7823 8.93814 5.77678C8.94196 5.77127 8.94738 5.76703 8.95368 5.76461C9.04203 5.73059 9.10857 5.7133 9.1533 5.71275C9.43921 5.70974 10.4185 5.70933 12.0912 5.71152C12.1721 5.71152 12.2631 5.69574 12.3641 5.66419C12.6489 5.57556 12.9093 5.44138 13.1453 5.26166C13.6463 4.87943 13.9883 4.38375 14.1713 3.7746C14.172 3.77225 14.1722 3.76975 14.1718 3.76733C14.1713 3.7649 14.1703 3.76262 14.1688 3.76065C14.1674 3.75868 14.1654 3.7571 14.1632 3.75602C14.161 3.75494 14.1586 3.7544 14.1561 3.75444C13.9382 3.75663 11.8788 3.75732 7.97781 3.75649C4.07654 3.75567 2.01711 3.75416 1.79952 3.75197C1.79702 3.75186 1.79453 3.75235 1.79227 3.7534C1.79 3.75445 1.78802 3.75603 1.78648 3.75801C1.78495 3.75998 1.78392 3.7623 1.78346 3.76475C1.78301 3.76721 1.78315 3.76974 1.78388 3.77213C1.96662 4.38128 2.30851 4.8771 2.80955 5.2596C3.04525 5.43933 3.3055 5.57364 3.59032 5.66254C3.6913 5.6941 3.78226 5.70987 3.8632 5.70987C5.53588 5.70823 6.51518 5.70905 6.80109 5.71234C6.84582 5.71289 6.91236 5.73018 7.00071 5.7642C7.00701 5.76662 7.01243 5.77086 7.01625 5.77637C7.02007 5.78188 7.02211 5.7884 7.02211 5.79507L7.01923 13.5378C7.01923 13.5441 7.02164 13.5501 7.02595 13.5545C7.03027 13.559 7.03613 13.5616 7.04228 13.5617C7.07383 13.5619 7.38499 13.5622 7.97575 13.5625Z" stroke="var(--stroke-0, white)" stroke-width="0.0823169"/>
<path id="Vector_4" d="M46.4019 3.7627H35.7068C35.7002 3.7627 35.6938 3.7653 35.6891 3.76993C35.6844 3.77456 35.6817 3.78084 35.6817 3.78739V9.53475C35.6817 9.53789 35.6824 9.541 35.6836 9.54389C35.6848 9.54679 35.6865 9.54942 35.6887 9.55164C35.6909 9.55385 35.6936 9.55561 35.6965 9.55681C35.6994 9.55801 35.7025 9.55863 35.7056 9.55863H44.4637C44.4668 9.55863 44.47 9.55923 44.4728 9.56041C44.4757 9.56159 44.4784 9.56332 44.4806 9.5655C44.4828 9.56768 44.4846 9.57026 44.4858 9.57311C44.487 9.57596 44.4876 9.57901 44.4876 9.58209V11.5964C44.4876 11.5987 44.4871 11.601 44.4862 11.6031C44.4853 11.6052 44.484 11.6071 44.4824 11.6088C44.4807 11.6104 44.4788 11.6116 44.4766 11.6125C44.4745 11.6133 44.4722 11.6137 44.4699 11.6137C41.8769 11.6126 39.7634 11.6141 38.1294 11.6182C37.8421 11.619 37.6872 11.6204 37.6647 11.6223C37.5251 11.6349 37.3755 11.6729 37.2161 11.7363C36.3951 12.0617 35.7636 12.5659 35.3216 13.2489C35.2442 13.3685 35.1845 13.478 35.1426 13.5773C35.141 13.581 35.1403 13.5851 35.1408 13.5891C35.1412 13.5931 35.1426 13.597 35.145 13.6003C35.1473 13.6037 35.1505 13.6064 35.1542 13.6082C35.1578 13.61 35.1619 13.6108 35.166 13.6107C35.4613 13.5961 35.7715 13.5889 36.0966 13.5889C40.3979 13.5878 43.8157 13.5879 46.35 13.5893C46.3548 13.5893 46.3594 13.5873 46.3628 13.5838C46.3662 13.5804 46.3681 13.5757 46.3681 13.5708V7.67439C46.3681 7.66544 46.3646 7.65686 46.3582 7.65053C46.3519 7.6442 46.3433 7.64064 46.3344 7.64064H37.5787C37.5762 7.64064 37.5738 7.6396 37.572 7.63775C37.5703 7.6359 37.5693 7.63338 37.5693 7.63076V5.70867C37.5693 5.70212 37.5719 5.69584 37.5765 5.6912C37.5811 5.68657 37.5874 5.68397 37.594 5.68397C41.8336 5.68425 44.0267 5.68466 44.1735 5.68521C44.3072 5.68575 44.46 5.652 44.6321 5.58396C45.4322 5.26662 46.1771 4.63114 46.4171 3.78327C46.4178 3.78089 46.4179 3.77839 46.4175 3.77594C46.4171 3.7735 46.4161 3.77119 46.4146 3.7692C46.4131 3.7672 46.4112 3.76558 46.409 3.76445C46.4068 3.76332 46.4043 3.76272 46.4019 3.7627Z" stroke="var(--stroke-0, white)" stroke-width="0.0823169"/>
<path id="Vector_5" d="M62.264 11.6595H53.7603C53.7579 11.6595 53.7556 11.659 53.7534 11.6581C53.7512 11.6572 53.7492 11.6559 53.7475 11.6542C53.7458 11.6525 53.7445 11.6505 53.7436 11.6483C53.7427 11.6461 53.7422 11.6438 53.7422 11.6414V3.78137C53.7422 3.77668 53.7403 3.77217 53.7369 3.76886C53.7335 3.76554 53.7289 3.76367 53.7241 3.76367H51.8637C51.8574 3.76367 51.8513 3.76619 51.8468 3.77066C51.8424 3.77514 51.8398 3.78121 51.8398 3.78754V13.561C51.8398 13.5701 51.8434 13.5788 51.8499 13.5852C51.8563 13.5916 51.8649 13.5952 51.874 13.5952C55.4287 13.5946 58.2434 13.5949 60.3181 13.596C60.5053 13.596 60.5819 13.6022 60.7268 13.5351C61.5346 13.1619 62.054 12.5458 62.285 11.6867C62.2858 11.6835 62.2859 11.6801 62.2852 11.6769C62.2846 11.6736 62.2832 11.6706 62.2811 11.668C62.2791 11.6654 62.2765 11.6632 62.2736 11.6618C62.2706 11.6603 62.2673 11.6595 62.264 11.6595Z" stroke="var(--stroke-0, white)" stroke-width="0.0823169"/>
<path id="Vector_6" d="M24.5156 9.58872C26.5914 9.58954 27.7369 9.59187 27.9523 9.59571C28.3701 9.60312 28.8035 9.40021 29.1356 9.14709C29.6345 8.76788 29.9739 8.27508 30.1539 7.66868C30.1552 7.66432 30.1554 7.65973 30.1546 7.65527C30.1538 7.6508 30.152 7.64659 30.1493 7.64295C30.1466 7.63932 30.143 7.63637 30.139 7.63433C30.1349 7.63229 30.1305 7.63123 30.1259 7.63122C27.7974 7.63095 25.9275 7.63054 24.516 7.62999C23.1048 7.62971 21.2349 7.62903 18.9061 7.62793C18.9016 7.62794 18.8971 7.629 18.8931 7.63104C18.889 7.63307 18.8855 7.63603 18.8828 7.63966C18.8801 7.6433 18.8782 7.64751 18.8774 7.65198C18.8766 7.65644 18.8769 7.66103 18.8781 7.66539C19.0581 8.27151 19.3974 8.76445 19.896 9.14421C20.2277 9.39733 20.6611 9.60065 21.0789 9.59366C21.294 9.58982 22.4396 9.58817 24.5156 9.58872Z" stroke="var(--stroke-0, white)" stroke-width="0.0823169"/>
<path id="Vector_7" d="M71.7751 9.61982C74.0489 9.62037 75.2029 9.62106 75.2369 9.62188C75.2412 9.62199 75.2453 9.62372 75.2483 9.62672C75.2513 9.62972 75.2529 9.63374 75.2529 9.63793V13.5624C75.2529 13.5704 75.2561 13.578 75.2616 13.5836C75.2672 13.5893 75.2747 13.5924 75.2826 13.5924H77.1236C77.1289 13.5924 77.1341 13.5903 77.1379 13.5865C77.1416 13.5827 77.1438 13.5776 77.1438 13.5723V7.66891C77.1438 7.66466 77.1421 7.66057 77.1391 7.65756C77.1361 7.65455 77.132 7.65286 77.1277 7.65286C75.3447 7.65259 73.5607 7.65217 71.7755 7.65162C69.9903 7.65135 68.2062 7.65094 66.4232 7.65039C66.419 7.65039 66.4149 7.65208 66.4119 7.65509C66.4089 7.6581 66.4072 7.66219 66.4072 7.66644L66.4043 13.5698C66.4043 13.5751 66.4064 13.5803 66.4102 13.5841C66.414 13.5878 66.4191 13.59 66.4245 13.59L68.2655 13.5908C68.2733 13.5908 68.2809 13.5876 68.2864 13.582C68.292 13.5764 68.2951 13.5687 68.2951 13.5607L68.2972 9.63629C68.2972 9.6321 68.2989 9.62808 68.3019 9.62508C68.3048 9.62208 68.3089 9.62034 68.3132 9.62023C68.3472 9.61941 69.5012 9.61927 71.7751 9.61982Z" stroke="var(--stroke-0, white)" stroke-width="0.0823169"/>
<path id="Vector_8" d="M24.5185 13.588C26.5953 13.5885 27.7413 13.5907 27.9565 13.5946C28.3746 13.602 28.8084 13.3987 29.1406 13.146C29.6394 12.7662 29.979 12.2731 30.1593 11.6667C30.1605 11.6624 30.1608 11.6578 30.16 11.6533C30.1592 11.6489 30.1573 11.6446 30.1546 11.641C30.1519 11.6374 30.1484 11.6344 30.1443 11.6324C30.1403 11.6303 30.1358 11.6293 30.1313 11.6293C27.8014 11.629 25.9306 11.6287 24.5189 11.6284C23.1069 11.6279 21.2361 11.6271 18.9065 11.626C18.902 11.6259 18.8974 11.6269 18.8933 11.6289C18.8892 11.631 18.8857 11.6339 18.8829 11.6375C18.8801 11.6412 18.8783 11.6454 18.8774 11.6499C18.8766 11.6544 18.8768 11.659 18.8781 11.6634C19.0581 12.2701 19.3976 12.7633 19.8964 13.1431C20.2281 13.3962 20.6619 13.5999 21.0801 13.5925C21.2952 13.589 22.4414 13.5875 24.5185 13.588Z" stroke="var(--stroke-0, white)" stroke-width="0.0823169"/>
</g>
<path id="Vector_9" d="M24.5177 5.70118C22.4411 5.70118 21.2951 5.7031 21.0797 5.70694C20.6619 5.71435 20.2281 5.51102 19.8964 5.2579C19.3976 4.87842 19.0581 4.38534 18.8781 3.77866C18.8769 3.77431 18.8766 3.76972 18.8774 3.76526C18.8782 3.76079 18.8801 3.75657 18.8828 3.75294C18.8855 3.74931 18.889 3.74635 18.8931 3.74432C18.8971 3.74228 18.9016 3.74122 18.9061 3.74121C21.2354 3.74176 23.1059 3.74203 24.5177 3.74203C25.9294 3.74203 27.7999 3.7419 30.1292 3.74162C30.1337 3.74163 30.1382 3.74269 30.1423 3.74473C30.1463 3.74677 30.1498 3.74972 30.1526 3.75335C30.1553 3.75699 30.1571 3.7612 30.1579 3.76567C30.1587 3.77013 30.1585 3.77472 30.1572 3.77908C29.9772 4.38548 29.6378 4.87856 29.1389 5.25831C28.8068 5.51143 28.3734 5.71476 27.9552 5.70735C27.7401 5.70351 26.5942 5.70145 24.5177 5.70118Z" fill="var(--fill-0, white)"/>
<path id="Vector_10" d="M71.7589 3.75262C73.1712 3.7529 75.0427 3.7529 77.3734 3.75262C77.378 3.75261 77.3825 3.75368 77.3866 3.75574C77.3907 3.7578 77.3942 3.76079 77.3969 3.76448C77.3997 3.76816 77.4015 3.77244 77.4023 3.77696C77.403 3.78147 77.4027 3.78611 77.4014 3.79049C77.2211 4.39716 76.8814 4.89038 76.3823 5.27013C76.0501 5.52326 75.6163 5.72658 75.1982 5.71917C74.9828 5.71533 73.8362 5.71327 71.7585 5.713C69.6811 5.71272 68.5347 5.71437 68.3193 5.71794C67.9012 5.72535 67.4674 5.52202 67.1352 5.26849C66.6361 4.88873 66.2965 4.39552 66.1165 3.78884C66.1152 3.78446 66.1149 3.77983 66.1156 3.77531C66.1164 3.77079 66.1182 3.76651 66.121 3.76283C66.1237 3.75914 66.1272 3.75615 66.1313 3.75409C66.1354 3.75203 66.1399 3.75097 66.1445 3.75098C68.4752 3.7518 70.3467 3.75235 71.7589 3.75262Z" fill="var(--fill-0, white)"/>
<path id="Vector_11" d="M7.97781 3.75649C11.8788 3.75732 13.9382 3.75663 14.1561 3.75444C14.1586 3.7544 14.161 3.75494 14.1632 3.75602C14.1654 3.7571 14.1674 3.75868 14.1688 3.76065C14.1703 3.76262 14.1713 3.7649 14.1718 3.76733C14.1722 3.76975 14.172 3.77225 14.1713 3.7746C13.9883 4.38375 13.6463 4.87943 13.1453 5.26166C12.9093 5.44138 12.6489 5.57556 12.3641 5.66419C12.2631 5.69574 12.1721 5.71152 12.0912 5.71152C10.4185 5.70933 9.43921 5.70974 9.1533 5.71275C9.10857 5.7133 9.04203 5.73059 8.95368 5.76461C8.94738 5.76703 8.94196 5.77127 8.93814 5.77678C8.93432 5.7823 8.93227 5.78882 8.93227 5.79548V13.5382C8.93228 13.5445 8.92986 13.5505 8.92555 13.5549C8.92124 13.5594 8.91538 13.562 8.90923 13.5621C8.8774 13.5624 8.56624 13.5625 7.97575 13.5625C7.38499 13.5622 7.07383 13.5619 7.04228 13.5617C7.03613 13.5616 7.03027 13.559 7.02595 13.5545C7.02164 13.5501 7.01923 13.5441 7.01923 13.5378L7.02211 5.79507C7.02211 5.7884 7.02007 5.78188 7.01625 5.77637C7.01243 5.77086 7.00701 5.76662 7.00071 5.7642C6.91236 5.73018 6.84582 5.71289 6.80109 5.71234C6.51518 5.70905 5.53588 5.70823 3.8632 5.70987C3.78226 5.70987 3.6913 5.6941 3.59032 5.66254C3.3055 5.57364 3.04525 5.43933 2.80955 5.2596C2.30851 4.8771 1.96662 4.38128 1.78388 3.77213C1.78315 3.76974 1.78301 3.76721 1.78346 3.76475C1.78392 3.7623 1.78495 3.75998 1.78648 3.75801C1.78802 3.75603 1.79 3.75445 1.79227 3.7534C1.79453 3.75235 1.79702 3.75186 1.79952 3.75197C2.01711 3.75416 4.07654 3.75567 7.97781 3.75649Z" fill="var(--fill-0, white)"/>
<path id="Vector_12" d="M46.4019 3.7627C46.4043 3.76272 46.4068 3.76332 46.409 3.76445C46.4112 3.76558 46.4131 3.7672 46.4146 3.7692C46.4161 3.77119 46.4171 3.7735 46.4175 3.77594C46.4179 3.77839 46.4178 3.78089 46.4171 3.78327C46.1771 4.63114 45.4322 5.26662 44.6321 5.58396C44.46 5.652 44.3072 5.68575 44.1735 5.68521C44.0267 5.68466 41.8336 5.68425 37.594 5.68397C37.5874 5.68397 37.5811 5.68657 37.5765 5.6912C37.5719 5.69584 37.5693 5.70212 37.5693 5.70867V7.63076C37.5693 7.63338 37.5703 7.6359 37.572 7.63775C37.5738 7.6396 37.5762 7.64064 37.5787 7.64064H46.3344C46.3433 7.64064 46.3519 7.6442 46.3582 7.65053C46.3646 7.65686 46.3681 7.66544 46.3681 7.67439V13.5708C46.3681 13.5757 46.3662 13.5804 46.3628 13.5838C46.3594 13.5873 46.3548 13.5893 46.35 13.5893C43.8157 13.5879 40.3979 13.5878 36.0966 13.5889C35.7715 13.5889 35.4613 13.5961 35.166 13.6107C35.1619 13.6108 35.1578 13.61 35.1542 13.6082C35.1505 13.6064 35.1473 13.6037 35.145 13.6003C35.1426 13.597 35.1412 13.5931 35.1408 13.5891C35.1403 13.5851 35.141 13.581 35.1426 13.5773C35.1845 13.478 35.2442 13.3685 35.3216 13.2489C35.7636 12.5659 36.3951 12.0617 37.2161 11.7363C37.3755 11.6729 37.5251 11.6349 37.6647 11.6223C37.6872 11.6204 37.8421 11.619 38.1294 11.6182C39.7634 11.6141 41.8769 11.6126 44.4699 11.6137C44.4722 11.6137 44.4745 11.6133 44.4766 11.6125C44.4788 11.6116 44.4807 11.6104 44.4824 11.6088C44.484 11.6071 44.4853 11.6052 44.4862 11.6031C44.4871 11.601 44.4876 11.5987 44.4876 11.5964V9.58209C44.4876 9.57901 44.487 9.57596 44.4858 9.57311C44.4846 9.57026 44.4828 9.56768 44.4806 9.5655C44.4784 9.56332 44.4757 9.56159 44.4728 9.56041C44.47 9.55923 44.4668 9.55863 44.4637 9.55863H35.7056C35.7025 9.55863 35.6994 9.55801 35.6965 9.55681C35.6936 9.55561 35.6909 9.55385 35.6887 9.55164C35.6865 9.54942 35.6848 9.54679 35.6836 9.54389C35.6824 9.541 35.6817 9.53789 35.6817 9.53475V3.78739C35.6817 3.78084 35.6844 3.77456 35.6891 3.76993C35.6938 3.7653 35.7002 3.7627 35.7068 3.7627H46.4019Z" fill="var(--fill-0, white)"/>
<path id="Vector_13" d="M62.264 11.6595C62.2673 11.6595 62.2706 11.6603 62.2736 11.6618C62.2765 11.6632 62.2791 11.6654 62.2811 11.668C62.2832 11.6706 62.2846 11.6736 62.2852 11.6769C62.2859 11.6801 62.2858 11.6835 62.285 11.6867C62.054 12.5458 61.5346 13.1619 60.7268 13.5351C60.5819 13.6022 60.5053 13.596 60.3181 13.596C58.2434 13.5949 55.4287 13.5946 51.874 13.5952C51.8649 13.5952 51.8563 13.5916 51.8499 13.5852C51.8434 13.5788 51.8398 13.5701 51.8398 13.561V3.78754C51.8398 3.78121 51.8424 3.77514 51.8468 3.77066C51.8513 3.76619 51.8574 3.76367 51.8637 3.76367H53.7241C53.7289 3.76367 53.7335 3.76554 53.7369 3.76886C53.7403 3.77217 53.7422 3.77668 53.7422 3.78137V11.6414C53.7422 11.6438 53.7427 11.6461 53.7436 11.6483C53.7445 11.6505 53.7458 11.6525 53.7475 11.6542C53.7492 11.6559 53.7512 11.6572 53.7534 11.6581C53.7556 11.659 53.7579 11.6595 53.7603 11.6595H62.264Z" fill="var(--fill-0, white)"/>
<path id="Vector_14" d="M24.5156 9.58872C22.4396 9.58817 21.294 9.58982 21.0789 9.59366C20.6611 9.60065 20.2277 9.39733 19.896 9.14421C19.3974 8.76445 19.0581 8.27151 18.8781 7.66539C18.8769 7.66103 18.8766 7.65644 18.8774 7.65198C18.8782 7.64751 18.8801 7.6433 18.8828 7.63966C18.8855 7.63603 18.889 7.63307 18.8931 7.63104C18.8971 7.629 18.9016 7.62794 18.9061 7.62793C21.2349 7.62903 23.1048 7.62971 24.516 7.62999C25.9275 7.63054 27.7974 7.63095 30.1259 7.63122C30.1305 7.63123 30.1349 7.63229 30.139 7.63433C30.143 7.63637 30.1466 7.63932 30.1493 7.64295C30.152 7.64659 30.1538 7.6508 30.1546 7.65527C30.1554 7.65973 30.1552 7.66432 30.1539 7.66868C29.9739 8.27508 29.6345 8.76788 29.1356 9.14709C28.8035 9.40021 28.3701 9.60312 27.9523 9.59571C27.7369 9.59187 26.5914 9.58954 24.5156 9.58872Z" fill="var(--fill-0, white)"/>
<path id="Vector_15" d="M71.7755 7.65162C73.5607 7.65217 75.3447 7.65259 77.1277 7.65286C77.132 7.65286 77.1361 7.65455 77.1391 7.65756C77.1421 7.66057 77.1438 7.66466 77.1438 7.66891V13.5723C77.1438 13.5776 77.1416 13.5827 77.1379 13.5865C77.1341 13.5903 77.1289 13.5924 77.1236 13.5924H75.2826C75.2747 13.5924 75.2672 13.5893 75.2616 13.5836C75.2561 13.578 75.2529 13.5704 75.2529 13.5624V9.63793C75.2529 9.63374 75.2513 9.62972 75.2483 9.62672C75.2453 9.62372 75.2412 9.62199 75.2369 9.62188C75.2029 9.62106 74.0489 9.62037 71.7751 9.61982C69.5012 9.61927 68.3472 9.61941 68.3132 9.62023C68.3089 9.62034 68.3048 9.62208 68.3019 9.62508C68.2989 9.62808 68.2972 9.6321 68.2972 9.63629L68.2951 13.5607C68.2951 13.5687 68.292 13.5764 68.2864 13.582C68.2809 13.5876 68.2733 13.5908 68.2655 13.5908L66.4245 13.59C66.4191 13.59 66.414 13.5878 66.4102 13.5841C66.4064 13.5803 66.4043 13.5751 66.4043 13.5698L66.4072 7.66644C66.4072 7.66219 66.4089 7.6581 66.4119 7.65509C66.4149 7.65208 66.419 7.65039 66.4232 7.65039C68.2062 7.65094 69.9903 7.65135 71.7755 7.65162Z" fill="var(--fill-0, white)"/>
<path id="Vector_16" d="M24.5185 13.588C22.4414 13.5875 21.2952 13.589 21.0801 13.5925C20.6619 13.5999 20.2281 13.3962 19.8964 13.1431C19.3976 12.7633 19.0581 12.2701 18.8781 11.6634C18.8768 11.659 18.8766 11.6544 18.8774 11.6499C18.8783 11.6454 18.8801 11.6412 18.8829 11.6375C18.8857 11.6339 18.8892 11.631 18.8933 11.6289C18.8974 11.6269 18.902 11.6259 18.9065 11.626C21.2361 11.6271 23.1069 11.6279 24.5189 11.6284C25.9306 11.6287 27.8014 11.629 30.1313 11.6293C30.1358 11.6293 30.1403 11.6303 30.1443 11.6324C30.1484 11.6344 30.1519 11.6374 30.1546 11.641C30.1573 11.6446 30.1592 11.6489 30.16 11.6533C30.1608 11.6578 30.1605 11.6624 30.1593 11.6667C29.979 12.2731 29.6394 12.7662 29.1406 13.146C28.8084 13.3987 28.3746 13.602 27.9565 13.5946C27.7413 13.5907 26.5953 13.5885 24.5185 13.588Z" fill="var(--fill-0, white)"/>
</g>
</svg>
